<svg xmlns="http://www.w3.org/2000/svg" xmlns:xlink="http://www.w3.org/1999/xlink" version="1.1" style="enable-background:new 0 0 1600 1200;" xml:space="preserve" width="1265.3636381764063" height="1101.454547503763"><rect id="backgroundrect" width="100%" height="100%" x="0" y="0" fill="none" stroke="none" style="" class=""/>












<g class="currentLayer" style=""><title>Layer 1</title><g id="background" class="">
	<g id="svg_1">
		<g id="svg_2">
			<path d="M266.29091186523436,871.3272720336914 c91.6,0 183.2,0 274.8,0 c91.3,0 182.6,0 273.8,0 c51.6,0 103.3,0 154.9,0 c1.9,0 1.9,-3 0,-3 c-91.6,0 -183.2,0 -274.8,0 c-91.3,0 -182.6,0 -273.8,0 c-51.6,0 -103.3,0 -154.9,0 C264.3909118652344,868.3272720336914 264.3909118652344,871.3272720336914 266.29091186523436,871.3272720336914 L266.29091186523436,871.3272720336914 z" style="fill:#E8E8E8;" id="svg_3"/>
		</g>
	</g>
	<g id="svg_4">
		<g id="svg_5">
			<path d="M988.2909118652344,809.1272720336914 c-0.8,28.8 2.1,57.6 8.7,85.7 c0.4,1.9 3.3,1.1 2.9,-0.8 c-6.5,-27.8 -9.4,-56.3 -8.5,-84.9 C991.2909118652344,807.2272720336914 988.2909118652344,807.2272720336914 988.2909118652344,809.1272720336914 L988.2909118652344,809.1272720336914 z" style="fill:#E8E8E8;" id="svg_6"/>
		</g>
	</g>
	<g id="svg_7">
		<g id="svg_8">
			<path d="M1107.3909118652343,811.4272720336915 c2.8,26.6 1.1,53.5 -5,79.5 c-0.4,1.9 2.4,2.7 2.9,0.8 c6.2,-26.3 8,-53.4 5.1,-80.3 C1110.1909118652343,809.5272720336914 1107.1909118652343,809.5272720336914 1107.3909118652343,811.4272720336915 L1107.3909118652343,811.4272720336915 z" style="fill:#E8E8E8;" id="svg_9"/>
		</g>
	</g>
	<g id="svg_10">
		<g id="svg_11">
			<path d="M998.1909118652343,897.6272720336914 c34.6,8.8 71.2,7.6 105.1,-3.6 c1.8,-0.6000000000000001 1,-3.5 -0.8,-2.9 c-33.5,11 -69.4,12.3 -103.5,3.6 C997.0909118652344,894.3272720336914 996.2909118652344,897.2272720336914 998.1909118652343,897.6272720336914 L998.1909118652343,897.6272720336914 z" style="fill:#E8E8E8;" id="svg_12"/>
		</g>
	</g>
	<g id="svg_13">
		<g id="svg_14">
			<path d="M989.6909118652343,810.5272720336914 c38.9,8.3 79.2,8.1 118,-0.5 c1.9,-0.4 1.1,-3.3 -0.8,-2.9 c-38.3,8.5 -78.1,8.6 -116.4,0.5 C988.5909118652344,807.2272720336914 987.7909118652344,810.1272720336914 989.6909118652343,810.5272720336914 L989.6909118652343,810.5272720336914 z" style="fill:#E8E8E8;" id="svg_15"/>
		</g>
	</g>
	<g id="svg_16">
		<g id="svg_17">
			<path d="M1013.3909118652343,811.6272720336914 c-5.2,-11.7 -0.5,-26 3.4,-37.5 c4,-11.9 9.7,-23.2 16.7,-33.6 c-0.8,0.1 -1.6,0.2 -2.4,0.30000000000000004 c2.3,2.6 4.8,4.4 7.9,5.9 c1.2,0.5 2.5,-0.30000000000000004 2.2,-1.7000000000000002 c-1.2,-5.4 -3.3,-10.7 -0.9,-16.1 c1.7000000000000002,-3.8 4.1,-7.6 6.1,-11.2 c-0.7000000000000001,0.2 -1.4,0.4 -2.1,0.5 c2.1,1.3 4.2,2.5 6.3,3.8 c1.4,0.9 2.6,-0.8 2.1,-2.1 c-2.1,-4.6 -3.5,-9.2 -0.6000000000000001,-13.8 c1.7000000000000002,-2.8 3.9,-5.3 5.8,-7.9 c4.2,-5.6 8.6,-11.2 13,-16.7 c8.4,-10.5 17.1,-20.7 26.1,-30.7 c-0.8,-0.1 -1.6,-0.2 -2.4,-0.30000000000000004 c12.8,16.8 20.9,36.9 23.1,57.9 c1.1,10.1 0.8,20.5 -1,30.5 c-0.9,5.1 -2.2,10.1 -3.8,15 c-0.30000000000000004,1 -0.7000000000000001,2 -1,2.9 c-1.1,2.8 -2.9,4 -5.8,4.6 c-2,0.4 -3.1,0.1 -4.8,1.4 c-0.8,0.6000000000000001 -1,1.6 -0.30000000000000004,2.4 c2.2,2.3 3.1,2.7 2.3,5.8 c-0.5,2 -1.7000000000000002,4.1 -2.6,6.1 c-1.8,4 -3.8,7.9 -5.9,11.7 c-4.3,7.8 -9.2,15.2 -14.7,22.2 c-1.2,1.5 0.9,3.6 2.1,2.1 c10.6,-13.6 19,-28.5 25.3,-44.5 c0.2,-0.5 0,-1.1 -0.4,-1.5 c-1.3,-1.3 -2.6,-2.7 -4,-4 c-0.1,0.8 -0.2,1.6 -0.30000000000000004,2.4 c2.3,-1.6 4.9,-0.5 7.3,-1.5 c1.9,-0.7000000000000001 2.9,-2.1 3.7,-3.9 c2.2,-4.7 3.6,-10.1 4.8,-15.1 c2.5,-11 3.3,-22.3 2.5,-33.5 c-1.7000000000000002,-22.6 -10,-44.5 -23.8,-62.5 c-0.5,-0.7000000000000001 -1.6,-1.1 -2.4,-0.30000000000000004 c-11.1,12.3 -21.8,25 -32,38 c-4.6,5.8 -9.5,11.6 -13.5,17.9 c-3.6,5.7 -1.9,11.1 0.6000000000000001,16.9 c0.7000000000000001,-0.7000000000000001 1.4,-1.4 2.1,-2.1 c-2.1,-1.3 -4.2,-2.5 -6.3,-3.8 c-0.7000000000000001,-0.4 -1.7000000000000002,-0.2 -2.1,0.5 c-2.5,4.6 -6.4,9.7 -7.8,14.8 c-1.2,4.5 1.3,10.4 2.3,14.8 c0.7000000000000001,-0.6000000000000001 1.5,-1.1 2.2,-1.7000000000000002 c-2.9,-1.3 -5.2,-3 -7.3,-5.4 c-0.7000000000000001,-0.8 -1.9,-0.5 -2.4,0.30000000000000004 c-7.8,11.6 -13.9,24.3 -18.1,37.7 c-3.6,11.6 -7.1,24.8 -2,36.4 C1011.5909118652344,814.8272720336914 1014.1909118652343,813.3272720336914 1013.3909118652343,811.6272720336914 L1013.3909118652343,811.6272720336914 z" style="fill:#E8E8E8;" id="svg_18"/>
		</g>
	</g>
	<g id="svg_19">
		<g id="svg_20">
			<path d="M1094.7909118652344,673.5272720336914 c-4,45.3 -35,81.6 -47.9,124.2 c-0.6000000000000001,1.9 2.3,2.6 2.9,0.8 c12.9,-42.9 44,-79.3 48,-125 C1097.9909118652345,671.5272720336914 1094.8909118652343,671.6272720336914 1094.7909118652344,673.5272720336914 L1094.7909118652344,673.5272720336914 z" style="fill:#E8E8E8;" id="svg_21"/>
		</g>
	</g>
	<g id="svg_22">
		<g id="svg_23">
			<path d="M1056.9909118652345,697.6272720336914 c3.2,16.5 6.9,32.8 11.1,49 c0.5,1.9 3.4,1.1 2.9,-0.8 c-4.2,-16.2 -7.9,-32.6 -11.1,-49 C1059.5909118652344,694.9272720336915 1056.6909118652343,695.7272720336914 1056.9909118652345,697.6272720336914 L1056.9909118652345,697.6272720336914 z" style="fill:#E8E8E8;" id="svg_24"/>
		</g>
	</g>
	<g id="svg_25">
		<g id="svg_26">
			<path d="M1090.7909118652344,708.2272720336914 c8.7,-6.3 16.2,-13.8 22.7,-22.5 c1.2,-1.5 -1.4,-3 -2.6,-1.5 c-6.1,8.2 -13.3,15.4 -21.6,21.4 C1087.7909118652344,706.8272720336914 1089.2909118652344,709.4272720336915 1090.7909118652344,708.2272720336914 L1090.7909118652344,708.2272720336914 z" style="fill:#E8E8E8;" id="svg_27"/>
		</g>
	</g>
	<g id="svg_28">
		<g id="svg_29">
			<path d="M1081.4909118652345,665.4272720336915 c2.7,8.6 4.3,19.1 10.9,25.6 c1.4,1.4 3.5,-0.8 2.1,-2.1 c-6.1,-6.1 -7.7,-16.4 -10.2,-24.3 C1083.7909118652344,662.8272720336914 1080.8909118652343,663.6272720336914 1081.4909118652345,665.4272720336915 L1081.4909118652345,665.4272720336915 z" style="fill:#E8E8E8;" id="svg_30"/>
		</g>
	</g>
	<g id="svg_31">
		<g id="svg_32">
			<path d="M1007.3909118652343,810.8272720336914 c-6.1,-4.8 -9.8,-11.5 -12.9,-18.5 c-3.5,-8.2 -6.5,-16.6 -9.2,-25.1 c-5.1,-16.3 -8.8,-33.1 -11,-50 c-4.5,-35.4 -0.9,-71.2 -5.2,-106.7 c-0.9,0.30000000000000004 -1.9,0.5 -2.8,0.8 c11.2,25.2 37.4,40.3 59.2,55.3 c-0.2,-0.7000000000000001 -0.4,-1.4 -0.5,-2.1 c-3,4.3 -6,8.6 -9,12.9 c-0.7000000000000001,1 0.2,2.3 1.3,2.3 c3.9,0 7.3,-0.5 11,-1.8 c-0.6000000000000001,-0.2 -1.1,-0.5 -1.7000000000000002,-0.7000000000000001 c3.7,5.7 7.4,11.4 11.1,17.1 c0.1,-0.6000000000000001 0.2,-1.2 0.2,-1.8 c-1.8,1.7000000000000002 -3.3,3.6 -4.8,5.7 c-0.5,0.7000000000000001 0,2.1 0.9,2.2 c8.2,1.2 11.1,9 13.2,16 c0.6000000000000001,1.8 3.5,1.1 2.9,-0.8 c-2.5,-7.9 -6.1,-16.8 -15.3,-18.1 c0.30000000000000004,0.7000000000000001 0.6000000000000001,1.5 0.9,2.2 c1.3,-2 2.6,-3.4 4.3,-5 c0.5,-0.4 0.6000000000000001,-1.3 0.2,-1.8 c-3.7,-5.7 -7.4,-11.4 -11.1,-17.1 c-0.30000000000000004,-0.5 -1,-0.9 -1.7000000000000002,-0.7000000000000001 c-3.4,1.1 -6.7,1.7000000000000002 -10.2,1.6 c0.4,0.8 0.9,1.5 1.3,2.3 c3,-4.3 6,-8.6 9,-12.9 c0.5,-0.7000000000000001 0.1,-1.6 -0.5,-2.1 c-21.4,-14.7 -47.1,-29.4 -58.1,-54.2 c-0.6000000000000001,-1.3 -3,-0.7000000000000001 -2.8,0.8 c4.4,36.8 0.5,74 5.7,110.7 c2.5,17.7 6.6,35.1 12.3,52 c4.6,13.7 9.4,30.4 21.1,39.7 C1006.7909118652344,814.1272720336914 1008.8909118652343,812.0272720336914 1007.3909118652343,810.8272720336914 L1007.3909118652343,810.8272720336914 z" style="fill:#E8E8E8;" id="svg_33"/>
		</g>
	</g>
	<g id="svg_34">
		<g id="svg_35">
			<path d="M966.8909118652343,613.5272720336914 c8.1,22.4 14.9,46 25.8,67.3 c5.4,10.5 11.3,20.8 16.4,31.5 c5.5,11.6 10.4,23.4 15.4,35.1 c0.7000000000000001,1.8 3.3,0.2 2.6,-1.5 c-4.7,-11.2 -9.5,-22.4 -14.6,-33.4 c-5,-10.8 -10.8,-21.1 -16.4,-31.6 c-11.2,-21.4 -18.1,-45.4 -26.4,-68.1 C969.0909118652344,610.9272720336915 966.1909118652343,611.7272720336914 966.8909118652343,613.5272720336914 L966.8909118652343,613.5272720336914 z" style="fill:#E8E8E8;" id="svg_36"/>
		</g>
	</g>
	<g id="svg_37">
		<g id="svg_38">
			<path d="M970.6909118652343,689.5272720336914 c10.8,1.3 22.6,1.9 30.8,10 c1.4,1.4 3.5,-0.8 2.1,-2.1 c-8.8,-8.6 -21.3,-9.4 -32.9,-10.8 C968.7909118652344,686.3272720336914 968.7909118652344,689.3272720336914 970.6909118652343,689.5272720336914 L970.6909118652343,689.5272720336914 z" style="fill:#E8E8E8;" id="svg_39"/>
		</g>
	</g>
	<g id="svg_40">
		<g id="svg_41">
			<path d="M999.5909118652344,649.0272720336914 c-1.8,6.5 -3,13.2 -3.5,20 c-0.4,5.8 -1.1,12.6 0.9,18.2 c0.6000000000000001,1.8 3.5,1 2.9,-0.8 c-1.9,-5.3 -1.2,-11.9 -0.8,-17.5 c0.5,-6.5 1.7000000000000002,-12.9 3.4,-19.2 C1002.9909118652345,647.9272720336915 1000.0909118652344,647.1272720336914 999.5909118652344,649.0272720336914 L999.5909118652344,649.0272720336914 z" style="fill:#E8E8E8;" id="svg_42"/>
		</g>
	</g>
	<g id="svg_43">
		<g id="svg_44">
			<path d="M977.4909118652345,744.0272720336914 c7.8,0.2 15.3,0.30000000000000004 22.9,2.4 c7.5,2.1 14.9,4.3 22.4,6.5 c1.9,0.5 2.7,-2.4 0.8,-2.9 c-8,-2.3 -15.9,-4.8 -24,-6.9 c-7.3,-1.9 -14.6,-1.8 -22.1,-2 C975.5909118652344,740.9272720336915 975.5909118652344,743.9272720336915 977.4909118652345,744.0272720336914 L977.4909118652345,744.0272720336914 z" style="fill:#E8E8E8;" id="svg_45"/>
		</g>
	</g>
	<g id="svg_46">
		<g id="svg_47">
			<path d="M1086.8909118652343,808.0272720336914 c6.7,-0.9 13.3,-0.9 20,0 c-0.30000000000000004,-0.7000000000000001 -0.6000000000000001,-1.5 -0.9,-2.2 c-0.6000000000000001,0.9 -6.6,1 -7.8,1.1 c-2.7,0.4 -5.5,0.8 -8.2,1.4 c-0.4,0.1 -3.1,0.4 -3.2,0.7000000000000001 c0.2,-0.5 4.2,-0.4 4.8,-0.4 c2.9,0 5.8,0.30000000000000004 8.7,0.5 c0,-1 0,-2 0,-3 c-2.5,-0.1 -4.7,0.2 -7.2,0.9 c-1.6,0.4 -1.3,2.9 0.4,2.9 c3.9,0 7.4,-0.8 11.2,-1.8 c1.9,-0.5 1.1,-3.4 -0.8,-2.9 c-3.4,0.9 -6.8,1.7000000000000002 -10.4,1.7000000000000002 c0.1,1 0.30000000000000004,2 0.4,2.9 c2.1,-0.6000000000000001 4.2,-0.8 6.4,-0.8 c1.9,0 1.9,-2.9 0,-3 c-4.4,-0.2 -10.8,-1.8 -14.8,0.7000000000000001 c-1.6,1 -3.9,3.6 -1.8,5.2 c0.9,0.7000000000000001 1.9,0.30000000000000004 3,0.2 c3,-0.6000000000000001 5.9,-1.3 8.9,-1.8 c3.5,-0.6000000000000001 10.5,0.30000000000000004 12.9,-3 c0.5,-0.7000000000000001 0,-2.1 -0.9,-2.2 c-7,-1 -13.8,-1 -20.8,-0.1 C1084.9909118652345,805.2272720336914 1084.9909118652345,808.2272720336914 1086.8909118652343,808.0272720336914 L1086.8909118652343,808.0272720336914 z" style="fill:#E8E8E8;" id="svg_48"/>
		</g>
	</g>
	<g id="svg_49">
		<g id="svg_50">
			<path d="M990.9909118652345,809.9272720336915 c1.4,-0.4 2.8,-0.7000000000000001 4.2,-0.8 c0.7000000000000001,0 1.3,-0.1 2,0 c0.30000000000000004,0 1.7000000000000002,-0.1 1.8,0 c-0.1,-0.5 -0.30000000000000004,-1 -0.4,-1.5 c0,0.1 -0.1,0.2 -0.1,0.2 c0.6000000000000001,-0.30000000000000004 1.2,-0.7000000000000001 1.8,-1 c-0.1,0 -0.2,0 -0.2,0 c0.30000000000000004,0.30000000000000004 0.7000000000000001,0.7000000000000001 1,1 c0,-0.1 0,-0.2 -0.1,-0.2 c-0.5,-1.9 -3.3,-1.1 -2.9,0.8 c0,0.1 0,0.2 0.1,0.2 c0.1,0.5 0.6000000000000001,0.9 1,1 c0.1,0 0.2,0 0.2,0 c0.8,0.2 1.5,-0.2 1.8,-1 c0,-0.1 0.1,-0.2 0.1,-0.2 c0.2,-0.5 0,-1.1 -0.4,-1.5 c-1.1,-1.1 -3.5,-0.9 -4.9,-0.9 c-2,0 -4.1,0.4 -6,0.9 C988.3909118652343,807.5272720336914 989.1909118652343,810.4272720336915 990.9909118652345,809.9272720336915 L990.9909118652345,809.9272720336915 z" style="fill:#E8E8E8;" id="svg_51"/>
		</g>
	</g>
	<g id="svg_52">
		<g id="svg_53">
			<path d="M993.2909118652344,830.0272720336914 c36.5,6.3 74.4,9.3 110.4,-1.5 c1.8,-0.6000000000000001 1.1,-3.4 -0.8,-2.9 c-35.4,10.6 -72.8,7.7 -108.8,1.5 C992.1909118652343,826.8272720336914 991.3909118652343,829.7272720336914 993.2909118652344,830.0272720336914 L993.2909118652344,830.0272720336914 z" style="fill:#E8E8E8;" id="svg_54"/>
		</g>
	</g>
	<g id="svg_55">
		<g id="svg_56">
			<path d="M1118.9909118652345,871.1272720336914 c64.1,0 128.3,0 192.4,0 c1.9,0 1.9,-3 0,-3 c-64.1,0 -128.3,0 -192.4,0 C1116.9909118652345,868.1272720336914 1116.9909118652345,871.1272720336914 1118.9909118652345,871.1272720336914 L1118.9909118652345,871.1272720336914 z" style="fill:#E8E8E8;" id="svg_57"/>
		</g>
	</g>
	<g id="svg_58">
		<g id="svg_59">
			<path d="M1070.4909118652345,935.4272720336915 c60.4,0 120.9,0 181.3,0 c1.9,0 1.9,-3 0,-3 c-60.4,0 -120.9,0 -181.3,0 C1068.5909118652344,932.4272720336915 1068.5909118652344,935.4272720336915 1070.4909118652345,935.4272720336915 L1070.4909118652345,935.4272720336915 z" style="fill:#E8E8E8;" id="svg_60"/>
		</g>
	</g>
	<g id="svg_61">
		<g id="svg_62">
			<path d="M1097.9909118652345,935.1272720336915 c-7.2,6 -14.4,11.9 -21.5,17.9 c-1.5,1.2 0.6000000000000001,3.3 2.1,2.1 c7.2,-6 14.4,-11.9 21.5,-17.9 C1101.5909118652344,936.0272720336914 1099.3909118652343,933.8272720336913 1097.9909118652345,935.1272720336915 L1097.9909118652345,935.1272720336915 z" style="fill:#E8E8E8;" id="svg_63"/>
		</g>
	</g>
	<g id="svg_64">
		<g id="svg_65">
			<path d="M1077.3909118652343,956.2272720336914 c1.9,0 1.9,-3 0,-3 C1075.4909118652345,953.2272720336914 1075.4909118652345,956.2272720336914 1077.3909118652343,956.2272720336914 L1077.3909118652343,956.2272720336914 z" style="fill:#E8E8E8;" id="svg_66"/>
		</g>
	</g>
	<g id="svg_67">
		<g id="svg_68">
			<path d="M1107.8909118652343,953.2272720336914 c-60.9,0 -121.8,0 -182.7,0 c-1.9,0 -1.9,3 0,3 c60.9,0 121.8,0 182.7,0 C1109.7909118652344,956.2272720336914 1109.7909118652344,953.2272720336914 1107.8909118652343,953.2272720336914 L1107.8909118652343,953.2272720336914 z" style="fill:#E8E8E8;" id="svg_69"/>
		</g>
	</g>
	<g id="svg_70">
		<g id="svg_71">
			<path d="M924.8909118652343,984.2272720336914 c10.8,-9 21.9,-17.6 33.3,-25.9 c1.5,-1.1 0.1,-3.7 -1.5,-2.6 c-11.6,8.4 -22.9,17.2 -33.9,26.3 C921.2909118652344,983.3272720336913 923.3909118652343,985.4272720336915 924.8909118652343,984.2272720336914 L924.8909118652343,984.2272720336914 z" style="fill:#E8E8E8;" id="svg_72"/>
		</g>
	</g>
	<g id="svg_73">
		<g id="svg_74">
			<path d="M14.49091186523438,929.6272720336915 c70.6,0 141.2,0 211.8,0 c20,0 40,0 60,0 c1.9,0 1.9,-3 0,-3 c-70.6,0 -141.2,0 -211.8,0 c-20,0 -40,0 -60,0 C12.590911865234375,926.6272720336915 12.590911865234375,929.6272720336915 14.49091186523438,929.6272720336915 L14.49091186523438,929.6272720336915 z" style="fill:#E8E8E8;" id="svg_75"/>
		</g>
	</g>
	<g id="svg_76">
		<g id="svg_77">
			<path d="M51.390911865234386,955.7272720336914 c9.5,-8.1 19.1,-16.2 28.6,-24.3 c1.5,-1.3 -0.7000000000000001,-3.4 -2.1,-2.1 c-9.5,8.1 -19.1,16.2 -28.6,24.3 C47.790911865234364,954.8272720336913 49.99091186523435,957.0272720336914 51.390911865234386,955.7272720336914 L51.390911865234386,955.7272720336914 z" style="fill:#E8E8E8;" id="svg_78"/>
		</g>
	</g>
	<g id="svg_79">
		<g id="svg_80">
			<path d="M16.99091186523438,958.6272720336915 c65.6,0 131.2,0 196.8,0 c1.9,0 1.9,-3 0,-3 c-65.6,0 -131.2,0 -196.8,0 C15.090911865234375,955.6272720336915 15.090911865234375,958.6272720336915 16.99091186523438,958.6272720336915 L16.99091186523438,958.6272720336915 z" style="fill:#E8E8E8;" id="svg_81"/>
		</g>
	</g>
	<g id="svg_82">
		<g id="svg_83">
			<path d="M190.8909118652344,958.0272720336914 c-7.5,8.4 -15.2,16.6 -23,24.8 c-1.3,1.4 0.8,3.5 2.1,2.1 c7.8,-8.2 15.4,-16.4 23,-24.8 C194.3909118652344,958.7272720336914 192.1909118652344,956.6272720336915 190.8909118652344,958.0272720336914 L190.8909118652344,958.0272720336914 z" style="fill:#E8E8E8;" id="svg_84"/>
		</g>
	</g>
	<g id="svg_85">
		<g id="svg_86">
			<path d="M139.6909118652344,987.6272720336915 c57.7,0 115.3,0 173,0 c1.9,0 1.9,-3 0,-3 c-57.7,0 -115.3,0 -173,0 C137.79091186523436,984.6272720336915 137.79091186523436,987.6272720336915 139.6909118652344,987.6272720336915 L139.6909118652344,987.6272720336915 z" style="fill:#E8E8E8;" id="svg_87"/>
		</g>
	</g>
	<g id="svg_88">
		<g id="svg_89">
			<path d="M98.79091186523436,879.3272720336914 c24.4,0 48.8,0 73.3,0 c1.9,0 1.9,-3 0,-3 c-24.4,0 -48.8,0 -73.3,0 C96.89091186523439,876.3272720336914 96.89091186523439,879.3272720336914 98.79091186523436,879.3272720336914 L98.79091186523436,879.3272720336914 z" style="fill:#E8E8E8;" id="svg_90"/>
		</g>
	</g>
	<g id="svg_91">
		<g id="svg_92">
			<path d="M190.59091186523438,889.1272720336914 c7.5,0 15.1,0 22.6,0 c1.9,0 1.9,-3 0,-3 c-7.5,0 -15.1,0 -22.6,0 C188.59091186523438,886.1272720336914 188.59091186523438,889.1272720336914 190.59091186523438,889.1272720336914 L190.59091186523438,889.1272720336914 z" style="fill:#E8E8E8;" id="svg_93"/>
		</g>
	</g>
	<g id="svg_94">
		<g id="svg_95">
			<path d="M136.29091186523436,354.4272720336914 c0,16.3 0,32.7 0,49 c0,1.9 3,1.9 3,0 c0,-16.3 0,-32.7 0,-49 C139.29091186523436,352.5272720336914 136.29091186523436,352.5272720336914 136.29091186523436,354.4272720336914 L136.29091186523436,354.4272720336914 z" style="fill:#E8E8E8;" id="svg_96"/>
		</g>
	</g>
	<g id="svg_97">
		<g id="svg_98">
			<path d="M85.99091186523435,405.82727203369143 c40.2,0 80.4,0 120.6,0 c1.9,0 1.9,-3 0,-3 c-40.2,0 -80.4,0 -120.6,0 C84.09091186523438,402.82727203369143 84.09091186523438,405.82727203369143 85.99091186523435,405.82727203369143 L85.99091186523435,405.82727203369143 z" style="fill:#E8E8E8;" id="svg_99"/>
		</g>
	</g>
	<g id="svg_100">
		<g id="svg_101">
			<path d="M170.1909118652344,407.2272720336914 c0,12.6 0,25.1 0,37.7 c0,1.9 3,1.9 3,0 c0,-12.6 0,-25.1 0,-37.7 C173.1909118652344,405.2272720336914 170.1909118652344,405.2272720336914 170.1909118652344,407.2272720336914 L170.1909118652344,407.2272720336914 z" style="fill:#E8E8E8;" id="svg_102"/>
		</g>
	</g>
	<g id="svg_103">
		<g id="svg_104">
			<path d="M136.8909118652344,450.1272720336914 c32,0 64.1,0 96.1,0 c1.9,0 1.9,-3 0,-3 c-32,0 -64.1,0 -96.1,0 C134.8909118652344,447.1272720336914 134.8909118652344,450.1272720336914 136.8909118652344,450.1272720336914 L136.8909118652344,450.1272720336914 z" style="fill:#E8E8E8;" id="svg_105"/>
		</g>
	</g>
	<g id="svg_106">
		<g id="svg_107">
			<path d="M943.8909118652343,319.32727203369143 c0,4 0,7.9 0,11.9 c0,1.9 3,1.9 3,0 c0,-4 0,-7.9 0,-11.9 C946.8909118652343,317.4272720336914 943.8909118652343,317.4272720336914 943.8909118652343,319.32727203369143 L943.8909118652343,319.32727203369143 z" style="fill:#E8E8E8;" id="svg_108"/>
		</g>
	</g>
	<g id="svg_109">
		<g id="svg_110">
			<path d="M946.2909118652344,321.7272720336914 c68.8,0 137.6,0 206.4,0 c1.9,0 1.9,-3 0,-3 c-68.8,0 -137.6,0 -206.4,0 C944.3909118652343,318.7272720336914 944.3909118652343,321.7272720336914 946.2909118652344,321.7272720336914 L946.2909118652344,321.7272720336914 z" style="fill:#E8E8E8;" id="svg_111"/>
		</g>
	</g>
	<g id="svg_112">
		<g id="svg_113">
			<path d="M948.0909118652344,332.7272720336914 c68.2,0 136.4,0 204.5,0 c1.9,0 1.9,-3 0,-3 c-68.2,0 -136.4,0 -204.5,0 C946.1909118652343,329.7272720336914 946.1909118652343,332.7272720336914 948.0909118652344,332.7272720336914 L948.0909118652344,332.7272720336914 z" style="fill:#E8E8E8;" id="svg_114"/>
		</g>
	</g>
	<g id="svg_115">
		<g id="svg_116">
			<path d="M1152.1909118652343,319.32727203369143 c-0.4,4.1 -0.2,8.2 0.5,12.3 c0.30000000000000004,1.9 3.2,1.1 2.9,-0.8 c-0.7000000000000001,-3.8 -0.8,-7.7 -0.4,-11.5 C1155.3909118652343,317.4272720336914 1152.3909118652343,317.4272720336914 1152.1909118652343,319.32727203369143 L1152.1909118652343,319.32727203369143 z" style="fill:#E8E8E8;" id="svg_117"/>
		</g>
	</g>
	<g id="svg_118">
		<g id="svg_119">
			<path d="M960.3909118652343,319.4272720336914 c0,-27.9 0,-55.8 0,-83.7 c0,-1.9 -3,-1.9 -3,0 c0,27.9 0,55.8 0,83.7 C957.3909118652343,321.4272720336914 960.3909118652343,321.4272720336914 960.3909118652343,319.4272720336914 L960.3909118652343,319.4272720336914 z" style="fill:#E8E8E8;" id="svg_120"/>
		</g>
	</g>
	<g id="svg_121">
		<g id="svg_122">
			<path d="M960.3909118652343,236.2272720336914 c8.5,-3.4 17.5,-2.9 25.4,1.8 c1.7000000000000002,1 3.2,-1.6 1.5,-2.6 c-8.5,-5 -18.6,-5.8 -27.7,-2.1 C957.7909118652344,234.02727203369142 958.5909118652344,236.9272720336914 960.3909118652343,236.2272720336914 L960.3909118652343,236.2272720336914 z" style="fill:#E8E8E8;" id="svg_123"/>
		</g>
	</g>
	<g id="svg_124">
		<g id="svg_125">
			<path d="M985.2909118652344,237.32727203369143 c0,26.8 0,53.7 0,80.5 c0,1.9 3,1.9 3,0 c0,-26.8 0,-53.7 0,-80.5 C988.2909118652344,235.4272720336914 985.2909118652344,235.4272720336914 985.2909118652344,237.32727203369143 L985.2909118652344,237.32727203369143 z" style="fill:#E8E8E8;" id="svg_126"/>
		</g>
	</g>
	<g id="svg_127">
		<g id="svg_128">
			<path d="M988.6909118652343,259.7272720336914 c6.1,-2.5 12.5,-2.1 18.2,1.4 c1.7000000000000002,1 3.2,-1.6 1.5,-2.6 c-6.3,-3.8 -13.7,-4.5 -20.5,-1.7000000000000002 C986.0909118652344,257.5272720336914 986.8909118652343,260.4272720336914 988.6909118652343,259.7272720336914 L988.6909118652343,259.7272720336914 z" style="fill:#E8E8E8;" id="svg_129"/>
		</g>
	</g>
	<g id="svg_130">
		<g id="svg_131">
			<path d="M1006.2909118652344,261.0272720336914 c0,18.8 0,37.5 0,56.3 c0,1.9 3,1.9 3,0 c0,-18.8 0,-37.5 0,-56.3 C1009.2909118652344,259.1272720336914 1006.2909118652344,259.1272720336914 1006.2909118652344,261.0272720336914 L1006.2909118652344,261.0272720336914 z" style="fill:#E8E8E8;" id="svg_132"/>
		</g>
	</g>
	<g id="svg_133">
		<g id="svg_134">
			<path d="M960.7909118652344,259.2272720336914 c8.5,-1.9 16.9,-1.3 25.1,1.6 c1.8,0.6000000000000001 2.6,-2.3 0.8,-2.9 c-8.7,-3.1 -17.7,-3.5 -26.7,-1.6 C958.1909118652343,256.7272720336914 958.9909118652345,259.6272720336914 960.7909118652344,259.2272720336914 L960.7909118652344,259.2272720336914 z" style="fill:#E8E8E8;" id="svg_135"/>
		</g>
	</g>
	<g id="svg_136">
		<g id="svg_137">
			<path d="M986.5909118652344,293.9272720336914 c6.4,-1.7000000000000002 12.8,-1.9 19.3,-0.5 c1.9,0.4 2.7,-2.5 0.8,-2.9 c-7,-1.5 -13.9,-1.4 -20.9,0.5 C983.9909118652345,291.5272720336914 984.6909118652343,294.4272720336914 986.5909118652344,293.9272720336914 L986.5909118652344,293.9272720336914 z" style="fill:#E8E8E8;" id="svg_138"/>
		</g>
	</g>
	<g id="svg_139">
		<g id="svg_140">
			<path d="M1044.0909118652344,318.4272720336914 c0,-5.6 0,-11.2 0,-16.8 c0,-1.9 -3,-1.9 -3,0 c0,5.6 0,11.2 0,16.8 C1041.0909118652344,320.32727203369143 1044.0909118652344,320.32727203369143 1044.0909118652344,318.4272720336914 L1044.0909118652344,318.4272720336914 z" style="fill:#E8E8E8;" id="svg_141"/>
		</g>
	</g>
	<g id="svg_142">
		<g id="svg_143">
			<path d="M1042.5909118652344,302.5272720336914 c32.5,0 64.9,0 97.4,0 c1.9,0 1.9,-3 0,-3 c-32.5,0 -64.9,0 -97.4,0 C1040.5909118652344,299.5272720336914 1040.5909118652344,302.5272720336914 1042.5909118652344,302.5272720336914 L1042.5909118652344,302.5272720336914 z" style="fill:#E8E8E8;" id="svg_144"/>
		</g>
	</g>
	<g id="svg_145">
		<g id="svg_146">
			<path d="M1140.9909118652345,304.1272720336914 c1.9,0 1.9,-3 0,-3 C1138.9909118652345,301.1272720336914 1138.9909118652345,304.1272720336914 1140.9909118652345,304.1272720336914 L1140.9909118652345,304.1272720336914 z" style="fill:#E8E8E8;" id="svg_147"/>
		</g>
	</g>
	<g id="svg_148">
		<g id="svg_149">
			<path d="M1139.4909118652345,302.6272720336914 c0,5.1 0,10.2 0,15.3 c0,1.9 3,1.9 3,0 c0,-5.1 0,-10.2 0,-15.3 C1142.4909118652345,300.7272720336914 1139.4909118652345,300.7272720336914 1139.4909118652345,302.6272720336914 L1139.4909118652345,302.6272720336914 z" style="fill:#E8E8E8;" id="svg_150"/>
		</g>
	</g>
	<g id="svg_151">
		<g id="svg_152">
			<path d="M1062.9909118652345,300.5272720336914 c0,-5.3 0,-10.5 0,-15.8 c0,-1.9 -3,-1.9 -3,0 c0,5.3 0,10.5 0,15.8 C1059.9909118652345,302.4272720336914 1062.9909118652345,302.4272720336914 1062.9909118652345,300.5272720336914 L1062.9909118652345,300.5272720336914 z" style="fill:#E8E8E8;" id="svg_153"/>
		</g>
	</g>
	<g id="svg_154">
		<g id="svg_155">
			<path d="M1061.4909118652345,285.7272720336914 c31.9,0 63.8,0 95.8,0 c1.9,0 1.9,-3 0,-3 c-31.9,0 -63.8,0 -95.8,0 C1059.5909118652344,282.7272720336914 1059.5909118652344,285.7272720336914 1061.4909118652345,285.7272720336914 L1061.4909118652345,285.7272720336914 z" style="fill:#E8E8E8;" id="svg_156"/>
		</g>
	</g>
	<g id="svg_157">
		<g id="svg_158">
			<path d="M1156.2909118652344,284.2272720336914 c0,4.4 0,8.8 0,13.2 c0,1.9 3,1.9 3,0 c0,-4.4 0,-8.8 0,-13.2 C1159.2909118652344,282.2272720336914 1156.2909118652344,282.2272720336914 1156.2909118652344,284.2272720336914 L1156.2909118652344,284.2272720336914 z" style="fill:#E8E8E8;" id="svg_159"/>
		</g>
	</g>
	<g id="svg_160">
		<g id="svg_161">
			<path d="M1138.8909118652343,303.0272720336914 c5.8,0 11.6,0 17.4,0 c1.9,0 1.9,-3 0,-3 c-5.8,0 -11.6,0 -17.4,0 C1136.8909118652343,300.0272720336914 1136.8909118652343,303.0272720336914 1138.8909118652343,303.0272720336914 L1138.8909118652343,303.0272720336914 z" style="fill:#E8E8E8;" id="svg_162"/>
		</g>
	</g>
	<g id="svg_163">
		<g id="svg_164">
			<path d="M1156.0909118652344,297.5272720336914 c-0.2,1.1 -0.2,2.1 0.1,3.1 c0.2,0.8 1.1,1.3 1.8,1 c0.8,-0.2 1.3,-1.1 1,-1.8 c-0.1,-0.5 -0.2,-1.1 -0.1,-1.5 c0.1,-0.8 -0.2,-1.7000000000000002 -1,-1.8 C1157.1909118652343,296.32727203369143 1156.1909118652343,296.7272720336914 1156.0909118652344,297.5272720336914 L1156.0909118652344,297.5272720336914 z" style="fill:#E8E8E8;" id="svg_165"/>
		</g>
	</g>
	<g id="svg_166">
		<g id="svg_167">
			<path d="M1084.2909118652344,284.9272720336914 c1.3,5.1 1.6,10.3 0.9,15.6 c-0.2,1.9 2.8,1.9 3,0 c0.7000000000000001,-5.5 0.30000000000000004,-11 -1,-16.4 C1086.6909118652343,282.32727203369143 1083.7909118652344,283.1272720336914 1084.2909118652344,284.9272720336914 L1084.2909118652344,284.9272720336914 z" style="fill:#E8E8E8;" id="svg_168"/>
		</g>
	</g>
	<g id="svg_169">
		<g id="svg_170">
			<path d="M1106.8909118652343,302.32727203369143 c0.7000000000000001,5 0.30000000000000004,9.9 -0.9,14.7 c-0.5,1.9 2.4,2.7 2.9,0.8 c1.4,-5.4 1.7000000000000002,-10.8 0.9,-16.3 C1109.5909118652344,299.6272720336914 1106.6909118652343,300.4272720336914 1106.8909118652343,302.32727203369143 L1106.8909118652343,302.32727203369143 z" style="fill:#E8E8E8;" id="svg_171"/>
		</g>
	</g>
	<g id="svg_172">
		<g id="svg_173">
			<path d="M1087.2909118652344,424.02727203369136 c0,7.9 0,15.7 0,23.6 c0,1.9 3,1.9 3,0 c0,-7.9 0,-15.7 0,-23.6 C1090.2909118652344,422.02727203369136 1087.2909118652344,422.02727203369136 1087.2909118652344,424.02727203369136 L1087.2909118652344,424.02727203369136 z" style="fill:#E8E8E8;" id="svg_174"/>
		</g>
	</g>
	<g id="svg_175">
		<g id="svg_176">
			<path d="M1064.0909118652344,448.02727203369136 c20,0 40,0 60,0 c1.9,0 1.9,-3 0,-3 c-20,0 -40,0 -60,0 C1062.1909118652343,445.02727203369136 1062.1909118652343,448.02727203369136 1064.0909118652344,448.02727203369136 L1064.0909118652344,448.02727203369136 z" style="fill:#E8E8E8;" id="svg_177"/>
		</g>
	</g>
	<g id="svg_178">
		<g id="svg_179">
			<path d="M1029.9909118652345,111.62727203369141 c0,18 0,36.1 0,54.1 c0,1.9 3,1.9 3,0 c0,-18 0,-36.1 0,-54.1 C1032.9909118652345,109.7272720336914 1029.9909118652345,109.7272720336914 1029.9909118652345,111.62727203369141 L1029.9909118652345,111.62727203369141 z" style="fill:#E8E8E8;" id="svg_180"/>
		</g>
	</g>
	<g id="svg_181">
		<g id="svg_182">
			<path d="M1033.7909118652344,111.52727203369142 c22.8,0 45.5,0 68.3,0 c1.9,0 1.9,-3 0,-3 c-22.8,0 -45.5,0 -68.3,0 C1031.8909118652343,108.52727203369142 1031.8909118652343,111.52727203369142 1033.7909118652344,111.52727203369142 L1033.7909118652344,111.52727203369142 z" style="fill:#E8E8E8;" id="svg_183"/>
		</g>
	</g>
	<g id="svg_184">
		<g id="svg_185">
			<path d="M1102.1909118652343,111.12727203369141 c0,17.4 0,34.8 0,52.1 c0,1.9 3,1.9 3,0 c0,-17.4 0,-34.8 0,-52.1 C1105.1909118652343,109.2272720336914 1102.1909118652343,109.2272720336914 1102.1909118652343,111.12727203369141 L1102.1909118652343,111.12727203369141 z" style="fill:#E8E8E8;" id="svg_186"/>
		</g>
	</g>
	<g id="svg_187">
		<g id="svg_188">
			<path d="M1031.0909118652344,167.4272720336914 c24.2,0 48.4,0 72.6,0 c1.9,0 1.9,-3 0,-3 c-24.2,0 -48.4,0 -72.6,0 C1029.1909118652343,164.4272720336914 1029.1909118652343,167.4272720336914 1031.0909118652344,167.4272720336914 L1031.0909118652344,167.4272720336914 z" style="fill:#E8E8E8;" id="svg_189"/>
		</g>
	</g>
	<g id="svg_190">
		<g id="svg_191">
			<path d="M1036.6909118652343,117.8272720336914 c0,13.7 0,27.3 0,41 c0,1.9 3,1.9 3,0 c0,-13.7 0,-27.3 0,-41 C1039.6909118652343,115.9272720336914 1036.6909118652343,115.9272720336914 1036.6909118652343,117.8272720336914 L1036.6909118652343,117.8272720336914 z" style="fill:#E8E8E8;" id="svg_192"/>
		</g>
	</g>
	<g id="svg_193">
		<g id="svg_194">
			<path d="M1038.8909118652343,119.02727203369142 c18.7,0 37.5,0 56.2,0 c1.9,0 1.9,-3 0,-3 c-18.7,0 -37.5,0 -56.2,0 C1036.9909118652345,116.02727203369142 1036.9909118652345,119.02727203369142 1038.8909118652343,119.02727203369142 L1038.8909118652343,119.02727203369142 z" style="fill:#E8E8E8;" id="svg_195"/>
		</g>
	</g>
	<g id="svg_196">
		<g id="svg_197">
			<path d="M1093.9909118652345,117.8272720336914 c0,12.7 0,25.3 0,38 c0,1.9 3,1.9 3,0 c0,-12.7 0,-25.3 0,-38 C1096.9909118652345,115.9272720336914 1093.9909118652345,115.9272720336914 1093.9909118652345,117.8272720336914 L1093.9909118652345,117.8272720336914 z" style="fill:#E8E8E8;" id="svg_198"/>
		</g>
	</g>
	<g id="svg_199">
		<g id="svg_200">
			<path d="M1038.8909118652343,160.32727203369143 c18.6,0 37.2,0 55.9,0 c1.9,0 1.9,-3 0,-3 c-18.6,0 -37.2,0 -55.9,0 C1036.9909118652345,157.32727203369143 1036.9909118652345,160.32727203369143 1038.8909118652343,160.32727203369143 L1038.8909118652343,160.32727203369143 z" style="fill:#E8E8E8;" id="svg_201"/>
		</g>
	</g>
	<g id="svg_202">
		<g id="svg_203">
			<path d="M1074.2909118652344,142.3272720336914 c-7.9,-6 3.9,-18.5 9.4,-11 c5.1,6.8 -3.2,15 -10.3,11.2 c-1.7000000000000002,-0.9 -3.2,1.7000000000000002 -1.5,2.6 c4.6,2.5 10.7,1.8 14,-2.5 c3.4,-4.3 3,-11.1 -1.3,-14.7 c-4.5,-3.7 -10.9,-1.2 -14,3 c-3.3,4.6 -2.3,10.6 2.2,14 C1074.3909118652343,146.02727203369142 1075.7909118652344,143.4272720336914 1074.2909118652344,142.3272720336914 L1074.2909118652344,142.3272720336914 z" style="fill:#E8E8E8;" id="svg_204"/>
		</g>
	</g>
	<g id="svg_205">
		<g id="svg_206">
			<path d="M1064.7909118652344,157.12727203369138 c-0.4,-7.9 9.3,-10.9 15.4,-10.9 c7.5,0 9.9,6.7 13,12.4 c0.9,1.7000000000000002 3.5,0.2 2.6,-1.5 c-2.1,-3.8 -4.1,-8.8 -7.6,-11.6 c-3.2,-2.5 -7.2,-2.4 -11,-2 c-7,0.8 -15.9,5.1 -15.4,13.6 C1061.8909118652343,159.02727203369142 1064.8909118652343,159.02727203369142 1064.7909118652344,157.12727203369138 L1064.7909118652344,157.12727203369138 z" style="fill:#E8E8E8;" id="svg_207"/>
		</g>
	</g>
	<g id="svg_208">
		<g id="svg_209">
			<path d="M1040.1909118652343,149.9272720336914 c2.2,-4.1 10.3,-2.5 13.3,-0.9 c3.1,1.7000000000000002 4.9,4.5 5.7,7.9 c0.4,1.9 3.3,1.1 2.9,-0.8 c-1.2,-5.2 -4.8,-9.3 -10,-11 c-4.4,-1.4 -11.9,-1.5 -14.4,3.2 C1036.6909118652343,150.12727203369138 1039.2909118652344,151.62727203369138 1040.1909118652343,149.9272720336914 L1040.1909118652343,149.9272720336914 z" style="fill:#E8E8E8;" id="svg_210"/>
		</g>
	</g>
	<g id="svg_211">
		<g id="svg_212">
			<path d="M1045.9909118652345,142.52727203369142 c-3.3,-0.1 -2.5,-5 -1.1,-6.7 c1.8,-2.2 5.4,-2.5 7.5,-0.4 c1.7000000000000002,1.6 2.2,4.6 0.8,6.5 c-1,1.4 -2.5,1.7000000000000002 -4.1,1.7000000000000002 c-0.6000000000000001,0 -3.1,0.1 -3.5,-0.4 c-1.1,-1.6 -3.7,-0.1 -2.6,1.5 c1.2,1.8 3.7,1.9 5.7,1.9 c2.4,0.1 4.7,-0.5 6.4,-2.3 c3.2,-3.5 2.1,-9.4 -1.7000000000000002,-12 c-4.1,-2.7 -9.8,-1.2 -11.9,3.2 c-1.8,3.9 -0.5,9.8 4.5,9.9 C1047.9909118652345,145.6272720336914 1047.9909118652345,142.6272720336914 1045.9909118652345,142.52727203369142 L1045.9909118652345,142.52727203369142 z" style="fill:#E8E8E8;" id="svg_213"/>
		</g>
	</g>
</g><g id="icons" class="">
	<g id="svg_214">
		<g id="svg_215">
			<path d="M433.99091186523435,377.4272720336914 c4.7,3.8 10.5,2.2 14.9,-1.5 c6.2,-5.1 9.3,-13.8 10.5,-21.5 c3.1,-19.6 -4.8,-38.2 -7.9,-57.2 c-5.6,-35.3 9.8,-73.1 38.4,-94.3 c13.9,-10.4 36.8,-21.5 31.4,-42.8 c-0.5,-1.9 -3.4,-1.1 -2.9,0.8 c5.1,20.3 -18.5,30.6 -31.4,40.4 c-11.6,8.9 -21,20.4 -27.7,33.3 c-6.6,12.5 -10.6,26.4 -11.7,40.5 c-1.3,17.1 3.2,33 6.9,49.5 c2.2,10 3.6,20.5 1.7000000000000002,30.7 c-0.9,4.7 -2.5,9.3 -5,13.4 c-2.8,4.4 -9.5,11.2 -15.1,6.7 C434.6909118652344,374.1272720336914 432.49091186523435,376.2272720336914 433.99091186523435,377.4272720336914 L433.99091186523435,377.4272720336914 z" style="fill:#E8E8E8;" id="svg_216"/>
		</g>
	</g>
	<g id="svg_217">
		<g id="svg_218">
			<path d="M520.1909118652344,158.9272720336914 c-11.3,0.5 -21.2,-8.3 -20.6,-19.9 c0.6000000000000001,-12.1 14.9,-23.3 27,-20.1 c10.8,2.9 19.1,14.8 16.4,25.9 c-2.7,11.1 -15.2,13.5 -24.8,15.1 c-1.9,0.30000000000000004 -1.1,3.2 0.8,2.9 c12.4,-2 26.8,-6.4 27.6,-21.4 c0.6000000000000001,-12.2 -10.3,-25.4 -22.8,-25.9 c-13.2,-0.6000000000000001 -26.5,10.2 -27.2,23.6 c-0.6000000000000001,13.2 10.7,23.4 23.6,22.9 C522.0909118652344,161.82727203369143 522.0909118652344,158.82727203369143 520.1909118652344,158.9272720336914 L520.1909118652344,158.9272720336914 z" style="fill:#E8E8E8;" id="svg_219"/>
		</g>
	</g>
	<g id="svg_220">
		<g id="svg_221">
			<path d="M505.39091186523433,151.12727203369138 c4.8,-12.1 30.4,-14.1 33.4,0.30000000000000004 c0.4,1.9 3.3,1.1 2.9,-0.8 c-3.7,-17.6 -33.4,-15 -39.2,-0.30000000000000004 C501.7909118652344,152.12727203369138 504.6909118652344,152.82727203369143 505.39091186523433,151.12727203369138 L505.39091186523433,151.12727203369138 z" style="fill:#E8E8E8;" id="svg_222"/>
		</g>
	</g>
	<g id="svg_223">
		<g id="svg_224">
			<path d="M520.3909118652343,137.6272720336914 c-2.1,-1.5 -2.9,-4.4 -1.5,-6.6 c1.6,-2.7 5,-3 7.6,-1.6 c2,1.1 2.4,3.6 1.2,5.5 c-1.5,2.3 -4.7,2.6 -7.2,2 c-1.9,-0.4 -2.7,2.5 -0.8,2.9 c4,0.9 8.8,0 10.8,-3.9 c1.8,-3.5 0.5,-7.7 -3.1,-9.4 c-4,-1.8 -8.8,-1 -11.1,2.9 c-2.3,3.7 -0.8,8.3 2.6,10.7 C520.4909118652344,141.4272720336914 521.9909118652344,138.8272720336914 520.3909118652343,137.6272720336914 L520.3909118652343,137.6272720336914 z" style="fill:#E8E8E8;" id="svg_225"/>
		</g>
	</g>
	<g id="svg_226">
		<g id="svg_227">
			<path d="M562.7909118652344,106.8272720336914 c10.5,-27.8 40.7,-42 68.8,-43.9 c18.6,-1.3 37.2,1.6 55.4,5.1 c17.2,3.4 35.1,8.8 52.7,8.2 c14.5,-0.5 29.4,-6.5 36.2,-20 c0.9,-1.7000000000000002 -1.7000000000000002,-3.2 -2.6,-1.5 c-7.9,15.6 -26.1,19.6 -42.2,18.3 c-18.8,-1.5 -37.3,-7.1 -55.8,-10.2 c-30,-5 -62,-5.7 -88.7,11.2 c-12.1,7.7 -21.7,18.5 -26.8,32 C559.1909118652344,107.8272720336914 562.0909118652344,108.62727203369141 562.7909118652344,106.8272720336914 L562.7909118652344,106.8272720336914 z" style="fill:#E8E8E8;" id="svg_228"/>
		</g>
	</g>
	<g id="svg_229">
		<g id="svg_230">
			<path d="M787.9909118652344,54.52727203369142 c26.4,0 52.9,0 79.3,0 c1.9,0 1.9,-3 0,-3 c-26.4,0 -52.9,0 -79.3,0 C785.9909118652344,51.52727203369142 785.9909118652344,54.52727203369142 787.9909118652344,54.52727203369142 L787.9909118652344,54.52727203369142 z" style="fill:#E8E8E8;" id="svg_231"/>
		</g>
	</g>
	<g id="svg_232">
		<g id="svg_233">
			<path d="M786.8909118652343,51.3272720336914 c-4.7,-4.6 0.4,-12.4 4.1,-15.9 c4.5,-4.4 10.7,-6.1 16.7,-3.7 c0.5,0.2 1.5,-0.1 1.7000000000000002,-0.7000000000000001 c3.6,-8.4 12.1,-14.5 21.4,-14.1 c9.7,0.4 17.9,7.7 20.3,16.9 c0.2,0.9 1.4,1.4 2.2,0.9 c4.4,-2.7 8.9,0.5 10.7,4.6 c1.6,3.8 1.2,8.1 0.8,12.2 c-0.2,1.9 2.8,1.9 3,0 c0.6000000000000001,-6 1,-13.1 -3.8,-17.7 c-3.4,-3.2 -8.1,-4.2 -12.1,-1.7000000000000002 c0.7000000000000001,0.30000000000000004 1.5,0.6000000000000001 2.2,0.9 c-2.7,-10 -11.3,-18 -21.8,-19 c-10.8,-1.1 -21.2,5.6 -25.4,15.5 c0.6000000000000001,-0.2 1.1,-0.5 1.7000000000000002,-0.7000000000000001 c-8,-3.2 -16.4,0.2 -21.6,6.8 c-3.9,4.9 -7.3,12.8 -2,17.9 C786.1909118652344,54.8272720336914 788.2909118652344,52.727272033691406 786.8909118652343,51.3272720336914 L786.8909118652343,51.3272720336914 z" style="fill:#E8E8E8;" id="svg_234"/>
		</g>
	</g>
	<g id="svg_235">
		<g id="svg_236">
			<path d="M843.7909118652344,66.02727203369142 c12.3,-1.4 19.5,11.5 21.4,21.9 c2,10.7 0.1,21.4 -1,32.1 c-1.7000000000000002,16.1 -0.6000000000000001,35.5 14.7,44.9 c1.6,1 3.2,-1.6 1.5,-2.6 c-20.9,-12.8 -12.2,-41.3 -11.4,-60.9 c0.6000000000000001,-14.9 -5.3,-40.6 -25.2,-38.4 C841.8909118652343,63.227272033691406 841.8909118652343,66.2272720336914 843.7909118652344,66.02727203369142 L843.7909118652344,66.02727203369142 z" style="fill:#E8E8E8;" id="svg_237"/>
		</g>
	</g>
	<g id="svg_238">
		<g id="svg_239">
			<path d="M895.4909118652345,148.02727203369142 c-9,22.7 -17.9,45.4 -26.9,68 c-0.7000000000000001,1.8 2.2,2.6 2.9,0.8 c9,-22.7 17.9,-45.4 26.9,-68 C899.0909118652344,147.02727203369142 896.1909118652343,146.3272720336914 895.4909118652345,148.02727203369142 L895.4909118652345,148.02727203369142 z" style="fill:#E8E8E8;" id="svg_240"/>
		</g>
	</g>
	<g id="svg_241">
		<g id="svg_242">
			<path d="M896.8909118652343,149.9272720336914 c15.6,-0.8 31.1,-0.4 46.6,1.4 c-0.5,-0.6000000000000001 -1,-1.3 -1.4,-1.9 c-7.4,23.7 -13.4,47.7 -18.2,72 c-0.4,1.9 2.5,2.7 2.9,0.8 c4.8,-24.3 10.9,-48.3 18.2,-72 c0.30000000000000004,-1 -0.5,-1.8 -1.4,-1.9 c-15.5,-1.8 -31,-2.2 -46.6,-1.4 C894.9909118652345,147.02727203369142 894.9909118652345,150.02727203369142 896.8909118652343,149.9272720336914 L896.8909118652343,149.9272720336914 z" style="fill:#E8E8E8;" id="svg_243"/>
		</g>
	</g>
	<g id="svg_244">
		<g id="svg_245">
			<path d="M869.2909118652344,218.9272720336914 c9.2,0.4 18.3,0.9 27.5,1.5 c8.9,0.5 18.4,0.30000000000000004 26.8,3.7 c1.8,0.7000000000000001 2.6,-2.2 0.8,-2.9 c-8,-3.3 -17.1,-3.1 -25.6,-3.6 c-9.8,-0.6000000000000001 -19.6,-1.1 -29.5,-1.6 C867.3909118652343,215.82727203369143 867.3909118652343,218.82727203369143 869.2909118652344,218.9272720336914 L869.2909118652344,218.9272720336914 z" style="fill:#E8E8E8;" id="svg_246"/>
		</g>
	</g>
	<g id="svg_247">
		<g id="svg_248">
			<path d="M898.2909118652344,159.9272720336914 c9.6,0.2 19.2,0.9 28.7,2.2 c1.9,0.30000000000000004 2.7,-2.6 0.8,-2.9 c-9.8,-1.4 -19.6,-2.2 -29.5,-2.4 C896.2909118652344,156.82727203369143 896.2909118652344,159.82727203369143 898.2909118652344,159.9272720336914 L898.2909118652344,159.9272720336914 z" style="fill:#E8E8E8;" id="svg_249"/>
		</g>
	</g>
	<g id="svg_250">
		<g id="svg_251">
			<path d="M895.3909118652343,166.7272720336914 c5.4,-0.2 10.8,-0.1 16.2,0.4 c1.9,0.2 1.9,-2.8 0,-3 c-5.4,-0.5 -10.8,-0.7000000000000001 -16.2,-0.4 C893.4909118652345,163.82727203369143 893.4909118652345,166.82727203369143 895.3909118652343,166.7272720336914 L895.3909118652343,166.7272720336914 z" style="fill:#E8E8E8;" id="svg_252"/>
		</g>
	</g>
	<g id="svg_253">
		<g id="svg_254">
			<path d="M888.7909118652344,180.2272720336914 c11.5,-0.7000000000000001 22.4,-1.7000000000000002 33.7,1.1 c1.9,0.5 2.7,-2.4 0.8,-2.9 c-11.6,-2.8 -22.7,-1.9 -34.5,-1.2 C886.7909118652344,177.32727203369143 886.7909118652344,180.32727203369143 888.7909118652344,180.2272720336914 L888.7909118652344,180.2272720336914 z" style="fill:#E8E8E8;" id="svg_255"/>
		</g>
	</g>
	<g id="svg_256">
		<g id="svg_257">
			<path d="M889.2909118652344,189.02727203369142 c6.6,-0.5 13.2,-0.5 19.8,0.1 c1.9,0.2 1.9,-2.8 0,-3 c-6.6,-0.6000000000000001 -13.2,-0.6000000000000001 -19.8,-0.1 C887.3909118652343,186.2272720336914 887.2909118652344,189.2272720336914 889.2909118652344,189.02727203369142 L889.2909118652344,189.02727203369142 z" style="fill:#E8E8E8;" id="svg_258"/>
		</g>
	</g>
	<g id="svg_259">
		<g id="svg_260">
			<path d="M884.0909118652344,200.62727203369138 c9,-0.6000000000000001 17.8,-0.30000000000000004 26.7,0.9 c1.9,0.30000000000000004 1.9,-2.7 0,-3 c-8.9,-1.2 -17.8,-1.5 -26.7,-0.9 C882.1909118652343,197.7272720336914 882.1909118652343,200.7272720336914 884.0909118652344,200.62727203369138 L884.0909118652344,200.62727203369138 z" style="fill:#E8E8E8;" id="svg_261"/>
		</g>
	</g>
	<g id="svg_262">
		<g id="svg_263">
			<path d="M386.49091186523435,66.4272720336914 c4,5.4 9.8,7.6 15.7,10.3 c7,3.2 13.4,7.5 18.6,13.2 c11.8,12.7 15.7,29.8 16,46.7 c0.7000000000000001,31.7 -10,64.9 4.4,94.9 c0.8,1.7000000000000002 3.4,0.2 2.6,-1.5 c-15.1,-31.6 -1.7000000000000002,-67 -4.3,-100.2 c-1.1,-14.4 -5.2,-28.5 -14.5,-39.7 c-4.4,-5.3 -9.8,-9.9 -15.8,-13.3 c-6.7,-3.8 -15.4,-5.5 -20.1,-11.9 C387.99091186523435,63.427272033691395 385.39091186523433,64.9272720336914 386.49091186523435,66.4272720336914 L386.49091186523435,66.4272720336914 z" style="fill:#E8E8E8;" id="svg_264"/>
		</g>
	</g>
	<g id="svg_265">
		<g id="svg_266">
			<path d="M352.2909118652344,24.127272033691412 c-2.6,-3.3 -2.4,-5.6 0.6000000000000001,-6.9 c1.3,-0.7000000000000001 2.6,-1.2 4.1,-1.5 c1.9,-0.4 4,-0.5 6,-0.4 c6,0.30000000000000004 12.1,1.9 11.8,9.2 c-0.30000000000000004,8.6 -1.9,17.1 -4,25.4 c-2.2,8.5 -4.9,16.8 -7.8,25.1 c-0.6000000000000001,1.8 -1.1,3.9 -2,5.6 c-1.8,3.1 -4.6,3 -7.6,3 c-3.7,0 -8.4,0.5 -12,-0.5 c-4,-1.1 -4.9,-5.1 -1,-7.7 c1.8,-1.2 4.3,-1.4 6.4,-1.4 c2.7,0 5.1,0.6000000000000001 7.4,-1.2 c4.4,-3.4 5.1,-12.6 6.1,-17.5 c1.5,-7.1 4,-15.8 3.5,-23 c-0.4,-5.5 -5.8,-5.7 -9.7,-8 c-1.7000000000000002,-1 -3.2,1.6 -1.5,2.6 c3.1,1.8 7.6,2 8.2,6.1 c0.7000000000000001,4.8 -1.3,11.3 -2.2,16.1 c-0.9,4.6 -1.9,9.2 -3.1,13.7 c-0.9,3.4 -1.3,7.5 -5.8,8.4 c-1.8,0.4 -4,-0.2 -5.9,0.1 c-4.8,0.7000000000000001 -9.5,4.1 -8.8,9.5 c0.9,6.8 9,5.6 14,5.8 c6.2,0.2 12.4,1.1 15.2,-5.5 c3.5,-8.2 6,-17.2 8.4,-25.7 c2.5,-8.8 4.4,-17.9 5.1,-27 c0.6000000000000001,-7.1 0.9,-12.8 -7,-14.7 c-6.9,-1.7000000000000002 -16.4,-2.5 -21.8,3.1 c-3.6,3.7 -2.7,11 3.5,10.5 C354.1909118652344,26.927272033691395 354.1909118652344,23.927272033691395 352.2909118652344,24.127272033691412 L352.2909118652344,24.127272033691412 z" style="fill:#E8E8E8;" id="svg_267"/>
		</g>
	</g>
	<g id="svg_268">
		<g id="svg_269">
			<path d="M340.1909118652344,34.8272720336914 c-0.1,-0.1 -0.2,-0.2 -0.30000000000000004,-0.30000000000000004 c-0.4,-0.4 -1,-0.5 -1.5,-0.4 c-2.9,1 -4,5.7 -4.8,8.3 c-1.4,4.8 -1.7000000000000002,9.7 -1,14.7 c0.2,1.9 3.2,1.9 3,0 c-0.4,-3.5 -0.5,-6.9 0.1,-10.4 c0.30000000000000004,-1.8 3.4,-8.8 2.3,-9.8 C339.39091186523433,38.3272720336914 341.49091186523435,36.227272033691406 340.1909118652344,34.8272720336914 L340.1909118652344,34.8272720336914 z" style="fill:#E8E8E8;" id="svg_270"/>
		</g>
	</g>
	<g id="svg_271">
		<g id="svg_272">
			<path d="M330.0909118652344,23.8272720336914 c-9.2,11.7 -15.1,25.8 -11.2,40.8 c0.5,1.9 3.4,1.1 2.9,-0.8 c-3.6,-13.8 2,-27.1 10.4,-37.9 C333.39091186523433,24.427272033691395 331.2909118652344,22.3272720336914 330.0909118652344,23.8272720336914 L330.0909118652344,23.8272720336914 z" style="fill:#E8E8E8;" id="svg_273"/>
		</g>
	</g>
	<g id="svg_274">
		<g id="svg_275">
			<path d="M317.49091186523435,10.3272720336914 c-15.3,20.1 -22.5,45.5 -19.9,70.7 c0.2,1.9 3.2,1.9 3,0 c-2.5,-24.7 4.4,-49.4 19.5,-69.2 C321.1909118652344,10.3272720336914 318.5909118652344,8.8272720336914 317.49091186523435,10.3272720336914 L317.49091186523435,10.3272720336914 z" style="fill:#E8E8E8;" id="svg_276"/>
		</g>
	</g>
	<g id="svg_277">
		<g id="svg_278">
			<path d="M296.1909118652344,112.52727203369142 c-7.7,3.7 -14.9,8.8 -20.6,15.2 c-5.8,6.6 -7.6,13.7 -8.5,22.3 c-2,19.7 -9.3,41.3 -29.1,49.6 c-1.8,0.7000000000000001 -1,3.6 0.8,2.9 c15.8,-6.6 25,-21.6 28.9,-37.8 c2.3,-9.7 1.2,-21.2 6.3,-29.9 c5.2,-8.9 14.6,-15.4 23.7,-19.8 C299.49091186523435,114.3272720336914 297.99091186523435,111.7272720336914 296.1909118652344,112.52727203369142 L296.1909118652344,112.52727203369142 z" style="fill:#E8E8E8;" id="svg_279"/>
		</g>
	</g>
	<g id="svg_280">
		<g id="svg_281">
			<path d="M195.6909118652344,252.7272720336914 c-6.6,0.2 -14.1,-2.6 -16.5,-9.4 c-2.8,-8 3.2,-15.8 9.6,-19.9 c12.4,-8 29.1,-11.1 43.5,-11.3 c7.3,-0.1 15.6,0 22,3.9 c8.2,5 9.6,14.4 3.2,21.5 c-9.7,10.8 -26.4,11.9 -39.8,12.9 c-1.9,0.1 -1.9,3.1 0,3 c13.4,-1 28.4,-2.2 39.2,-11.2 c9.9,-8.2 10.6,-21.8 -1,-28.9 c-12,-7.3 -30.3,-4.9 -43.3,-2.1 c-12.5,2.7 -29.6,7.6 -35.2,20.5 c-5.8,13.2 5.3,24.2 18.5,23.8 C197.6909118652344,255.62727203369138 197.6909118652344,252.62727203369138 195.6909118652344,252.7272720336914 L195.6909118652344,252.7272720336914 z" style="fill:#E8E8E8;" id="svg_282"/>
		</g>
	</g>
	<g id="svg_283">
		<g id="svg_284">
			<path d="M195.1909118652344,253.9272720336914 c-2.5,4 -4.9,8 -7.4,11.9 c-0.8,1.3 0.8,2.7 2.1,2.1 c6.1,-3.3 12.7,-5.4 18.9,-8.3 c3.4,-1.5 6.7,-3.3 9.9,-5.3 c1.1,-0.7000000000000001 2.4,-1.1 2.7,-2.5 c0.2,-0.7000000000000001 -0.2,-1.7000000000000002 -1,-1.8 c-0.1,0 -0.2,0 -0.30000000000000004,-0.1 c-0.7000000000000001,-0.1 -1.7000000000000002,0.2 -1.8,1 c0,0.1 0,0.1 0,0.2 c-0.4,1.9 2.5,2.7 2.9,0.8 c0,-0.1 0,-0.1 0,-0.2 c-0.6000000000000001,0.30000000000000004 -1.2,0.7000000000000001 -1.8,1 c0.1,0 0.2,0 0.30000000000000004,0.1 c-0.30000000000000004,-0.6000000000000001 -0.7000000000000001,-1.2 -1,-1.8 c-0.30000000000000004,1 -5.9,3.3 -7.1,4 c-3,1.6 -6.1,2.9 -9.3,4.2 c-4.7,1.9 -9.3,3.7 -13.7,6.1 c0.7000000000000001,0.7000000000000001 1.4,1.4 2.1,2.1 c2.5,-4 4.9,-8 7.4,-11.9 C198.79091186523436,253.82727203369143 196.1909118652344,252.32727203369143 195.1909118652344,253.9272720336914 L195.1909118652344,253.9272720336914 z" style="fill:#E8E8E8;" id="svg_285"/>
		</g>
	</g>
	<g id="svg_286">
		<g id="svg_287">
			<path d="M198.49091186523435,236.62727203369138 c-0.1,-0.2 -0.1,-0.6000000000000001 0.2,-0.6000000000000001 c0.8,0 -0.1,1 -0.2,1.1 c-0.5,0.30000000000000004 -2.2,0.7000000000000001 -2.1,-0.30000000000000004 c0.1,-1.2 2.4,-2.5 2.8,-0.7000000000000001 c0.1,0.5 -0.30000000000000004,1.1 -0.8,1.2 c-0.30000000000000004,0.1 -0.5,0.1 -0.7000000000000001,-0.1 c-0.1,-0.1 -0.30000000000000004,-0.2 -0.1,-0.2 c1.9,0.1 1.9,-2.9 0,-3 c-2,-0.2 -3.5,1.9 -3,3.8 c0.5,1.9 2.7,2.9 4.5,2.4 c1.8,-0.5 3.2,-2.1 3.2,-4 c0,-1.9 -1.5,-3.5 -3.2,-3.9 c-3.7,-0.9 -7.6,4.5 -4.4,7.2 c2.6,2.2 7.8,0.2 7.5,-3.5 c-0.2,-2 -2.4,-3.6 -4.4,-2.9 c-2,0.7000000000000001 -2.8,3.2 -1.8,5 C196.79091186523436,239.82727203369143 199.3909118652344,238.32727203369143 198.49091186523435,236.62727203369138 L198.49091186523435,236.62727203369138 z" style="fill:#E8E8E8;" id="svg_288"/>
		</g>
	</g>
	<g id="svg_289">
		<g id="svg_290">
			<path d="M220.59091186523438,233.9272720336914 c-0.1,-0.6000000000000001 -0.4,-1.4 0.2,-1.9 c0.30000000000000004,-0.30000000000000004 0.8,-0.30000000000000004 1.2,-0.30000000000000004 c1,0.2 0.8,1.3 0.1,1.8 c-0.4,0.30000000000000004 -0.8,0.30000000000000004 -1.1,-0.1 c-0.30000000000000004,-0.4 -0.2,-0.5 0.1,-0.7000000000000001 c0.2,-0.1 -0.4,0 0.1,-0.1 c1.2,-0.2 -0.8,1.2 -0.5,0.2 c-0.6000000000000001,1.9 2.3,2.6 2.9,0.8 c0.5,-1.8 -1.2,-3.6 -3,-3.3 c-2.1,0.4 -2.6,2.9 -1.3,4.4 c1.2,1.4 3.4,1.1 4.3,-0.5 c0.9,-1.6 0.30000000000000004,-3.7 -1.5,-4.3 c-1.8,-0.6000000000000001 -3.8,0.5 -4.2,2.3 c-0.5,2 0.9,4 2.9,4.5 c3.6,0.8 6.6,-4.1 4,-6.8 c-1.3,-1.3 -3.4,-1.4 -5,-0.7000000000000001 c-2.2,1.1 -2.3,3.4 -1.9,5.5 C217.99091186523435,236.62727203369138 220.8909118652344,235.82727203369143 220.59091186523438,233.9272720336914 L220.59091186523438,233.9272720336914 z" style="fill:#E8E8E8;" id="svg_291"/>
		</g>
	</g>
	<g id="svg_292">
		<g id="svg_293">
			<path d="M242.79091186523436,227.2272720336914 c0.4,0 0.8,0.1 1.3,0.1 c0,0 0,-0.1 0,-0.1 c0.1,-0.1 0.1,-0.30000000000000004 0.2,-0.4 c0.1,-0.2 0.4,-0.4 0.6000000000000001,-0.5 c0.5,-0.2 1,-0.2 1.3,0.30000000000000004 c0.4,0.8 -0.30000000000000004,2.3 -1.3,1.7000000000000002 c-0.6000000000000001,-0.4 -0.7000000000000001,-1.4 0.2,-1.2 c0.2,0 0.30000000000000004,0.1 0.4,0.2 c0,0 0,0.2 0,0 c0,-0.2 0,0.1 -0.1,0.1 c-0.30000000000000004,0.2 -0.4,0.4 -0.7000000000000001,0.2 c-0.7000000000000001,-0.5 -1.7000000000000002,-0.1 -2.1,0.5 c-0.4,0.8 -0.1,1.6 0.5,2.1 c2.9,2.1 6.8,-2.1 4.5,-4.9 c-2.1,-2.5 -6.6,-0.9 -6.4,2.4 c0.1,1.7000000000000002 1.4,3.2 3,3.6 c1.6,0.4 3.3,-0.4 4.2,-1.8 c2,-3.1 -0.8,-7.4 -4.5,-6.2 c-1.7000000000000002,0.6000000000000001 -3.2,2.3 -3,4.2 c0.2,2.1 3.2,3.2 4.3,1.1 C246.1909118652344,227.02727203369142 243.6909118652344,225.52727203369142 242.79091186523436,227.2272720336914 L242.79091186523436,227.2272720336914 z" style="fill:#E8E8E8;" id="svg_294"/>
		</g>
	</g>
	<g id="svg_295">
		<g id="svg_296">
			<path d="M303.1909118652344,140.02727203369142 c12.3,-6.8 23,-15.8 31.9,-26.7 c1.2,-1.5 -0.9,-3.6 -2.1,-2.1 c-8.7,10.7 -19.2,19.5 -31.3,26.2 C299.99091186523435,138.3272720336914 301.49091186523435,140.9272720336914 303.1909118652344,140.02727203369142 L303.1909118652344,140.02727203369142 z" style="fill:#E8E8E8;" id="svg_297"/>
		</g>
	</g>
	<g id="svg_298">
		<g id="svg_299">
			<path d="M452.7909118652344,142.6272720336914 c-2.2,12.6 -3.1,25.3 -2.5,38.1 c0.1,1.9 3.1,1.9 3,0 c-0.6000000000000001,-12.5 0.2,-25 2.4,-37.3 C455.99091186523435,141.52727203369142 453.0909118652344,140.7272720336914 452.7909118652344,142.6272720336914 L452.7909118652344,142.6272720336914 z" style="fill:#E8E8E8;" id="svg_300"/>
		</g>
	</g>
	<g id="svg_301">
		<g id="svg_302">
			<path d="M437.49091186523435,434.92727203369145 c0,-15.3 7.2,-29.8 19.5,-39 c1.5,-1.1 0,-3.7 -1.5,-2.6 c-13.2,9.8 -20.9,25.1 -20.9,41.6 C434.49091186523435,436.82727203369143 437.49091186523435,436.82727203369143 437.49091186523435,434.92727203369145 L437.49091186523435,434.92727203369145 z" style="fill:#E8E8E8;" id="svg_303"/>
		</g>
	</g>
</g><g id="chair" class="">
	<path d="M604.9909118652344,838.7272720336914 c1.6,14.4 4.1,30.2 8.1,47.3 c5.4,23.1 12.3,43.3 19.2,60.3 c-1.9,1.7000000000000002 -7.6,6.2 -16,6.8 c-5.3,0.4 -9.5,-0.9 -11.9,-1.8 c-3.6,-12.5 -7.1,-25.5 -10.3,-39 c-6.6,-27.8 -11.4,-54.3 -14.9,-79 C587.8909118652343,835.1272720336914 596.4909118652344,836.9272720336915 604.9909118652344,838.7272720336914 z" style="fill:#191919;" id="svg_304"/>
	<path d="M829.4909118652345,829.3272720336914 c-1.3,14.3 -3.5,30.2 -7.2,47.3 c-5.2,24.2 -12.1,45.2 -19.1,62.9 c1,0.9 6.7,6.3 15.5,5.9 c7.6,-0.30000000000000004 12.5,-4.8 13.7,-5.9 c2.3,-12.1 4.5,-24.3 6.7,-36.5 c4.8,-26.7 9.1,-53 13.2,-79 C844.6909118652343,825.7272720336914 837.0909118652344,827.5272720336914 829.4909118652345,829.3272720336914 z" style="fill:#191919;" id="svg_305"/>
	<path d="M650.6909118652344,789.4272720336915 c2.3,15.3 5,31.1 8.1,47.3 c4.5,23.5 9.6,45.9 15,67.1 c-2.3,1.4 -6.9,3.7 -13.2,4.1 c-5.3,0.30000000000000004 -9.5,-0.9 -11.9,-1.8 c-3,-14.2 -5.9,-28.6 -8.8,-43 c-5.3,-26.7 -10.2,-53 -14.9,-79 C633.5909118652344,785.8272720336914 642.0909118652344,787.6272720336914 650.6909118652344,789.4272720336915 z" style="fill:#191919;" id="svg_306"/>
	<path d="M791.7909118652344,786.4272720336915 c-2.7,15.1 -5.1,30.9 -7.2,47.3 c-2.9,22.6 -4.9,44.2 -6.1,64.8 c1.7000000000000002,1.1 5.7,3.4 11.4,3.7 c6.1,0.2 10.6,-2.2 12.3,-3.2 c-1,-11.8 -1.4,-24.9 -0.8,-38.9 c1.2,-31.1 6.9,-57.9 13.2,-79 C806.9909118652345,782.8272720336914 799.3909118652343,784.6272720336914 791.7909118652344,786.4272720336915 z" style="fill:#191919;" id="svg_307"/>
	<path d="M969.4909118652345,451.82727203369143 c17.5,31.2 4,65.7 -28.8,151.4 c-15.8,41.2 -44.7,116.9 -85.5,224.8 c-40.1,14.6 -106.5,32.6 -188.6,26.9 c-47.7,-3.3 -87.7,-13.6 -118,-24.2 c-4.5,-8.1 -20.1,-38.4 -8.4,-67.8 c6.5,-16.3 19.6,-28 47.4,-41.8 c27.4,-13.6 75.7,-32.7 145.9,-36.2 c-27.5,-136.9 19.6,-249.1 92.9,-275 C874.4909118652345,393.0272720336914 945.3909118652343,408.92727203369145 969.4909118652345,451.82727203369143 z" style="fill:#FFFFFF;stroke:#191919;stroke-width:2;stroke-miterlimit:10;" id="svg_308"/>
	<g id="svg_309">
		<g id="svg_310">
			<path d="M963.0909118652344,463.1272720336914 c-29,36.7 -35.6,86 -46.7,130.1 c-11.9,47.2 -25.6,94.3 -46.1,138.6 c-11.3,24.3 -24.6,47.7 -40.5,69.3 c-1.1,1.6 1.5,3.1 2.6,1.5 c27.9,-38 47.6,-81.1 62.8,-125.5 c15.4,-45.2 25.6,-91.8 37.6,-137.9 c6.8,-26.2 15.5,-52.4 32.5,-73.9 C966.3909118652343,463.7272720336914 964.2909118652344,461.6272720336914 963.0909118652344,463.1272720336914 L963.0909118652344,463.1272720336914 z" style="fill:#191919;" id="svg_311"/>
		</g>
	</g>
	<g id="svg_312">
		<g id="svg_313">
			<path d="M549.1909118652344,809.0272720336914 c66.7,24.5 139.4,31.7 209.6,20.8 c20.1,-3.1 40,-7.7 59.5,-13.7 c1.8,-0.6000000000000001 1.1,-3.5 -0.8,-2.9 c-68,21 -141,24.2 -210.6,9.4 c-19.3,-4.1 -38.4,-9.7 -56.9,-16.5 C548.1909118652344,805.4272720336915 547.3909118652343,808.3272720336914 549.1909118652344,809.0272720336914 L549.1909118652344,809.0272720336914 z" style="fill:#191919;" id="svg_314"/>
		</g>
	</g>
	<g id="svg_315">
		<g id="svg_316">
			<path d="M783.9909118652344,730.4272720336915 c16.8,5.5 31.1,16.6 40.7,31.6 c1,1.6 3.6,0.1 2.6,-1.5 c-10,-15.6 -24.9,-27.2 -42.5,-33 C782.8909118652343,726.9272720336915 782.0909118652344,729.8272720336914 783.9909118652344,730.4272720336915 L783.9909118652344,730.4272720336915 z" style="fill:#191919;" id="svg_317"/>
		</g>
	</g>
</g><g id="leg_r" class="">
	<path d="M483.1909118652344,859.9272720336915 c8,12 16,24.1 23.9,36.1 c-51.2,46 -57.8,59.1 -54,62.3 c7.6,6.3 62.1,-21.7 67.7,-24.6 c20.3,-10.4 35.6,-20.5 45.8,-27.7 c-3.6,-9.8 -8.4,-20.8 -15,-32.4 c-8.7,-15.3 -18.3,-28.2 -27.4,-38.7 C510.49091186523435,843.1272720336914 496.7909118652344,851.5272720336914 483.1909118652344,859.9272720336915 z" style="fill:#191919;" id="svg_318"/>
	<path d="M782.3909118652343,624.2272720336914 c3.6,7.8 7.4,18.9 8,32.3 c0.9,20.2 -5.7,36.3 -10.7,45.6 c-2.7,3.5 -7.5,9.3 -14.6,15.6 c0,0 -16.1,14.2 -41.7,25.1 c-26.1,11.2 -102,24.7 -205.1,27.3 c3,12.8 8.4,28.5 18,45.4 c5.3,9.3 11.1,17.5 16.8,24.6 c-3.8,5 -14.6,17.7 -36.1,25.7 c-20.7,7.7 -39.7,6.8 -47.2,6.2 c-10.8,-9.9 -21.9,-21.7 -32.2,-35.8 c-30.3,-41.7 -37.4,-82 -38.7,-107.9 c7.5,-5.4 18.5,-12.8 32.9,-20.7 c30,-16.5 57.5,-25.5 80.1,-32.2 c38.9,-11.4 76.1,-19.3 161.7,-33.8 C700.3909118652343,637.1272720336914 737.4909118652344,630.9272720336915 782.3909118652343,624.2272720336914 z" style="fill:#FFFFFF;stroke:#191919;stroke-width:2;stroke-miterlimit:10;" id="svg_319"/>
	<path d="M687.3909118652343,641.4272720336915 c-2.9,19.1 -11.1,43.9 -36.5,59.3 c-24.7,15 -45.4,8.9 -94.9,20.9 c-35.6,8.6 -82.7,20 -95.8,45.3 c-13.7,26.6 12.2,64.1 57.5,94.9 c3.8,-0.5 8.6,-1.5 13.7,-3.5 c13.1,-5.2 19.5,-13.7 21.9,-17.4 c-5.8,-7 -11.8,-15.1 -17.3,-24.4 c-10.4,-17.4 -16,-33.6 -19.2,-46.7 c53,-2.2 97.5,-6.8 131.3,-11.2 c40.7,-5.3 68.9,-10.6 95.8,-25.8 c22.5,-12.7 31.5,-25.2 34.7,-30 c9.7,-14.7 10.5,-28.1 10.9,-35.6 c1,-18.3 -5,-33.2 -10,-42.6 C748.7909118652344,630.2272720336914 718.0909118652344,635.8272720336914 687.3909118652343,641.4272720336915 z" style="opacity:0.19;fill:#6C6D6D;" id="svg_320"/>
	<path d="M780.4909118652344,626.7272720336914 c-2,18.6 -9.1,48 -37.4,71.2 c-17.4,14.3 -36.1,20.7 -109.5,40.5 c-32.4,8.7 -71.6,19 -116.2,30.2 c56.7,-0.6000000000000001 102.8,-5.3 135.9,-9.8 c34.3,-4.7 51.1,-8.8 68.5,-16.3 c16.5,-7.1 49.8,-21.5 63.4,-51.8 C798.2909118652344,661.3272720336914 785.0909118652344,634.9272720336915 780.4909118652344,626.7272720336914 z" style="opacity:0.19;fill:#6C6D6D;" id="svg_321"/>
	<path d="M517.6909118652344,770.1272720336914 c-0.4,13.2 0.2,28.3 2.7,44.9 c2.4,16.4 6.3,31.1 10.5,43.9 c3.4,-2 7.3,-4.7 11.1,-8 c4.6,-4 8,-7.8 10.5,-11.1 c-5.8,-7.6 -11.7,-16.4 -17.2,-26.3 C526.3909118652343,797.5272720336914 521.0909118652344,782.7272720336914 517.6909118652344,770.1272720336914 z" style="opacity:0.22;fill:#6C6D6D;" id="svg_322"/>
</g><g id="leg_l" class="">
	<path d="M513.0909118652344,917.3272720336913 c7.7,15.1 15.3,30.2 23,45.4 c-49.2,57.8 -55.6,74.2 -51.9,78.2 c7.3,8 59.7,-27.3 65.1,-30.9 c19.5,-13.1 34.3,-25.8 44.1,-34.8 c-3.5,-12.3 -8.1,-26.1 -14.5,-40.8 c-8.3,-19.2 -17.6,-35.4 -26.3,-48.7 C539.3909118652343,896.3272720336914 526.1909118652344,906.8272720336914 513.0909118652344,917.3272720336913 z" style="fill:#191919;" id="svg_323"/>
	<path d="M800.6909118652343,621.1272720336914 c3.5,9.9 7.1,23.7 7.7,40.6 c0.9,25.4 -5.5,45.6 -10.3,57.3 c-2.6,4.4 -7.2,11.7 -14,19.7 c0,0 -15.4,17.9 -40,31.6 c-25.1,14 -98.1,31.1 -197.1,34.3 c2.9,16.1 8,35.8 17.3,57 c5.1,11.7 10.7,22 16.2,30.9 c-3.6,6.3 -14,22.2 -34.7,32.3 c-19.9,9.7 -38.1,8.6 -45.4,7.7 c-10.4,-12.4 -21.1,-27.3 -30.9,-45 c-29.2,-52.4 -36,-103.1 -37.2,-135.6 c7.2,-6.7 17.8,-16.1 31.6,-26 c28.9,-20.7 55.2,-32.1 77,-40.5 c37.3,-14.3 73.2,-24.2 155.5,-42.5 C721.7909118652344,637.2272720336914 757.5909118652344,629.5272720336914 800.6909118652343,621.1272720336914 z" style="fill:#FFFFFF;stroke:#191919;stroke-width:2;stroke-miterlimit:10;" id="svg_324"/>
	<path d="M709.3909118652343,642.7272720336914 c-2.8,24 -10.7,55.1 -35.1,74.5 c-23.7,18.9 -43.7,11.2 -91.2,26.3 c-34.2,10.8 -79.5,25.2 -92.1,57 c-13.2,33.4 11.7,80.6 55.2,119.2 c3.7,-0.6000000000000001 8.3,-1.9 13.2,-4.4 c12.6,-6.5 18.7,-17.2 21,-21.9 c-5.6,-8.8 -11.4,-19 -16.7,-30.7 c-10,-21.9 -15.4,-42.2 -18.4,-58.7 c51,-2.8 93.7,-8.5 126.3,-14 c39.2,-6.6 66.2,-13.3 92.1,-32.4 c21.6,-16 30.3,-31.7 33.3,-37.7 c9.3,-18.5 10.1,-35.3 10.5,-44.7 c0.9,-23 -4.8,-41.7 -9.6,-53.5 C768.3909118652343,628.6272720336914 738.8909118652343,635.6272720336914 709.3909118652343,642.7272720336914 z" style="opacity:0.19;fill:#6C6D6D;" id="svg_325"/>
	<path d="M798.7909118652344,624.2272720336914 c-1.9,23.3 -8.7,60.3 -35.9,89.5 c-16.8,18 -34.7,26 -105.2,50.9 c-31.2,11 -68.8,23.9 -111.7,38 c54.5,-0.8 98.9,-6.6 130.7,-12.3 c33,-5.9 49.2,-11 65.8,-20.4 c15.9,-9 47.8,-27 61,-65.2 C815.9909118652345,667.7272720336914 803.2909118652344,634.6272720336914 798.7909118652344,624.2272720336914 z" style="opacity:0.19;fill:#6C6D6D;" id="svg_326"/>
	<path d="M546.2909118652344,804.5272720336914 c-0.4,16.6 0.2,35.6 2.6,56.4 c2.4,20.7 6,39.1 10.1,55.1 c3.3,-2.6 7,-5.9 10.7,-10.1 c4.4,-5 7.7,-9.8 10.1,-13.9 c-5.6,-9.6 -11.3,-20.6 -16.5,-33.1 C554.6909118652344,838.9272720336915 549.4909118652344,820.2272720336914 546.2909118652344,804.5272720336914 z" style="opacity:0.22;fill:#6C6D6D;" id="svg_327"/>
</g><g id="hand_r" class="">
	<path d="M507.39091186523433,465.7272720336914 c-1.9,-0.9 -5.7,-2.6 -5.6,-4.5 c0.2,-3.1 10.5,-5.2 18.2,-5.1 c5.2,0 14.8,1.1 26,8.9 C535.4909118652344,468.32727203369143 519.9909118652344,471.32727203369143 507.39091186523433,465.7272720336914 z" style="fill:#FFFFFF;stroke:#191919;stroke-width:2;stroke-miterlimit:10;" id="svg_328"/>
	<path d="M747.8909118652343,336.0272720336914 c-19,-2.5 -36.1,26 -37.7,28.6 c-5.8,9.9 -6.5,16.5 -10.5,34.6 c-9.7,44.1 -14.9,66.5 -29.3,80 c-13,12.1 -28.2,15 -32.2,15.6 c-17.1,2.7 -32.6,-3.7 -62.8,-16.6 c-25.5,-10.9 -28.6,-14.9 -42.5,-16.5 c-7.1,-0.8 -27.8,-3.1 -41.5,10.2 c-8.8,8.5 -12.7,22.1 -9.5,24.9 c4.1,3.6 20.9,-9.1 21.1,-8.8 c0.1,0.2 -5,2.6 -9.2,7.8 c-2.1,2.5 -5.7,7.9 -4.4,9.3 c2.3,2.8 16.4,-14.2 31.9,-11.2 c10.6,2 12.6,11.6 24.9,13.4 c7.2,1.1 13.5,-1.1 17.5,-3 c7,7.6 18.4,18.4 34.9,27.2 c9.8,5.2 44.4,23.1 86.7,12.7 c44.9,-11 67.5,-46.1 74.6,-57.1 c4,-6.3 33.4,-53.3 19.2,-106 C776.5909118652344,372.6272720336914 767.4909118652344,338.6272720336914 747.8909118652343,336.0272720336914 z" style="fill:#FFFFFF;stroke:#191919;stroke-width:2;stroke-miterlimit:10;" id="svg_329"/>
	<path d="M745.8909118652343,336.32727203369143 c-6.5,3.4 6.1,27 4.5,60.8 c-1.5,32.5 -15.4,56.5 -21.6,67.5 c-8.4,14.7 -19.5,33.9 -41.6,46.4 c-29.7,16.8 -66.5,14.3 -92.7,2.9 c-7.8,-3.4 -15.7,-14.4 -32.9,-21.1 c-7.5,-2.9 -13.4,-4.1 -20.3,-5.5 c-16.9,-3.3 -31.9,-6.3 -45.8,0.7000000000000001 c-6.6,3.4 -12.1,8.6 -11.7,9.3 c0.4,0.7000000000000001 8.1,-3.2 14.9,-6.9 c-8.2,10.9 -9.5,14 -8.9,14.6 c0.7000000000000001,0.6000000000000001 3.2,-1.7000000000000002 9.6,-5.3 c6.9,-3.8 11.9,-6.5 18,-6 c3.1,0.30000000000000004 5.5,1.3 6.9,1.9 c5.5,2.4 6.8,5.2 12.3,8 c3.4,1.7000000000000002 6.2,2.4 7.7,2.7 c3.2,0.7000000000000001 9.8,1.6 18.5,-1.5 c7.6,8 42.5,43.4 93.6,42.7 c26.3,-0.4 45.6,-10.2 53.2,-14.1 c41.7,-21.7 58.3,-60.2 62.5,-70.8 c13,-32.8 17.6,-81.4 -6.2,-111.9 C760.1909118652344,343.32727203369143 750.3909118652343,334.0272720336914 745.8909118652343,336.32727203369143 z" style="opacity:0.25;fill:#6C6D6D;" id="svg_330"/>
	<g id="svg_331">
		<g id="svg_332">
			<path d="M483.6909118652344,496.82727203369143 c3.9,-5.8 9,-10.4 15.1,-13.7 c1.3,-0.7000000000000001 0.1,-2.6 -1.1,-1.9 c-6.4,3.5 -11.8,8.4 -15.9,14.5 C480.89091186523433,496.92727203369145 482.89091186523433,498.02727203369136 483.6909118652344,496.82727203369143 L483.6909118652344,496.82727203369143 z" style="fill:#191919;" id="svg_333"/>
		</g>
	</g>
	<g id="svg_334">
		<g id="svg_335">
			<path d="M484.89091186523433,483.92727203369145 c3.9,-6.1 10.2,-9.3 16.5,-12.4 c1.3,-0.6000000000000001 0.2,-2.6 -1.1,-1.9 c-6.7,3.2 -13.3,6.7 -17.4,13.2 C482.1909118652344,484.02727203369136 484.0909118652344,485.1272720336914 484.89091186523433,483.92727203369145 L484.89091186523433,483.92727203369145 z" style="fill:#191919;" id="svg_336"/>
		</g>
	</g>
	<path d="M774.5909118652344,372.32727203369143 c-1.5,10.1 -4.2,24.7 -9,41.9 c-9.4,34 -17.9,64.6 -40.1,88.9 c-27.5,30 -64.8,38.2 -86.2,40.7 c15.9,3.7 28.4,3 36.3,1.9 c60,-8.4 92.4,-72.9 101.2,-101.1 c1.5,-5 4.7,-15.3 5.1,-29.4 C782.5909118652344,396.4272720336914 777.9909118652344,381.32727203369143 774.5909118652344,372.32727203369143 z" style="opacity:0.29;fill:#6C6D6D;" id="svg_337"/>
	<path d="M523.2909118652344,492.7272720336914 c5.7,2.8 13.5,5.9 23.1,7.7 c7.6,1.4 14.4,1.7000000000000002 19.8,1.5 c-13.7,7.3 -20.8,6.4 -24.8,4 c-2.5,-1.5 -5.3,-4.5 -13,-9.8 C526.2909118652344,494.6272720336914 524.4909118652344,493.42727203369145 523.2909118652344,492.7272720336914 z" style="opacity:0.26;fill:#6C6D6D;" id="svg_338"/>
</g><g id="table" class="">
	<g id="svg_339">
		<g id="svg_340">
			<path d="M321.0909118652344,657.1272720336914 c0,48 0,96.1 0,144.1 c0,5.8 9,5.8 9,0 c0,-48 0,-96.1 0,-144.1 C330.0909118652344,651.4272720336915 321.0909118652344,651.3272720336914 321.0909118652344,657.1272720336914 L321.0909118652344,657.1272720336914 z" style="fill:#161616;" id="svg_341"/>
		</g>
	</g>
	<g id="svg_342">
		<g id="svg_343">
			<path d="M484.6909118652344,655.2272720336914 c0,7.7 0,15.4 0,23.1 c0,5.8 9,5.8 9,0 c0,-7.7 0,-15.4 0,-23.1 C493.6909118652344,649.4272720336915 484.6909118652344,649.4272720336915 484.6909118652344,655.2272720336914 L484.6909118652344,655.2272720336914 z" style="fill:#161616;" id="svg_344"/>
		</g>
	</g>
	<path d="M196.8909118652344,651.2272720336914 c48.5,-45.7 97,-91.5 145.6,-137.2 c78.5,1.4 156.9,2.8 235.4,4.2 c-12.8,44.4 -25.6,88.7 -38.4,133.1 C425.2909118652344,651.2272720336914 311.0909118652344,651.2272720336914 196.8909118652344,651.2272720336914 z" style="fill:#FFFFFF;stroke:#191919;stroke-width:2;stroke-miterlimit:10;" id="svg_345"/>
	<g id="svg_346">
		<g id="svg_347">
			<path d="M199.79091186523436,656.4272720336915 c87.7,0 175.3,0 263,0 c24.6,0 49.1,0 73.7,0 c5.8,0 5.8,-9 0,-9 c-87.7,0 -175.3,0 -263,0 c-24.6,0 -49.1,0 -73.7,0 C193.99091186523435,647.4272720336915 193.99091186523435,656.4272720336915 199.79091186523436,656.4272720336915 L199.79091186523436,656.4272720336915 z" style="fill:#161616;" id="svg_348"/>
		</g>
	</g>
	<g id="svg_349">
		<g id="svg_350">
			<path d="M225.49091186523435,654.9272720336915 c0,99.5 0,199 0,298.4 c0,27.9 0,55.7 0,83.6 c0,5.8 9,5.8 9,0 c0,-99.5 0,-199 0,-298.4 c0,-27.9 0,-55.7 0,-83.6 C234.49091186523435,649.1272720336914 225.49091186523435,649.1272720336914 225.49091186523435,654.9272720336915 L225.49091186523435,654.9272720336915 z" style="fill:#161616;" id="svg_351"/>
		</g>
	</g>
	<g id="svg_352">
		<g id="svg_353">
			<path d="M499.7909118652344,654.9272720336915 c0,99.5 0,199 0,298.4 c0,27.9 0,55.7 0,83.6 c0,5.8 9,5.8 9,0 c0,-99.5 0,-199 0,-298.4 c0,-27.9 0,-55.7 0,-83.6 C508.7909118652344,649.1272720336914 499.7909118652344,649.1272720336914 499.7909118652344,654.9272720336915 L499.7909118652344,654.9272720336915 z" style="fill:#161616;" id="svg_354"/>
		</g>
	</g>
	<g id="svg_355">
		<g id="svg_356">
			<path d="M229.99091186523435,840.6272720336914 c70.6,0 141.2,0 211.8,0 c20,0 40,0 60,0 c5.8,0 5.8,-9 0,-9 c-70.6,0 -141.2,0 -211.8,0 c-20,0 -40,0 -60,0 C224.1909118652344,831.6272720336914 224.1909118652344,840.6272720336914 229.99091186523435,840.6272720336914 L229.99091186523435,840.6272720336914 z" style="fill:#161616;" id="svg_357"/>
		</g>
	</g>
	<g id="svg_358">
		<g id="svg_359">
			<path d="M576.6909118652344,518.2272720336914 c-11.4,44.5 -24.5,88.6 -39.5,132 c-1.3,3.7 4.5,5.2 5.8,1.6 c15,-43.5 28.1,-87.5 39.5,-132 C583.3909118652343,516.1272720336914 577.6909118652344,514.5272720336914 576.6909118652344,518.2272720336914 L576.6909118652344,518.2272720336914 z" style="fill:#161616;" id="svg_360"/>
		</g>
	</g>
	<g id="lines">
		<g id="svg_361">
			<g id="svg_362">
				<path d="M97.89091186523439,1046.7272720336914 c53.1,0 106.1,0 159.2,0 c5.8,0 5.8,-9 0,-9 c-53.1,0 -106.1,0 -159.2,0 C92.09091186523438,1037.7272720336914 92.09091186523438,1046.7272720336914 97.89091186523439,1046.7272720336914 L97.89091186523439,1046.7272720336914 z" style="fill:#161616;" id="svg_363"/>
			</g>
		</g>
		<g id="svg_364">
			<g id="svg_365">
				<path d="M279.3909118652344,1044.7272720336914 c12.2,0 24.5,0 36.7,0 c5.8,0 5.8,-9 0,-9 c-12.2,0 -24.5,0 -36.7,0 C273.5909118652344,1035.7272720336914 273.5909118652344,1044.7272720336914 279.3909118652344,1044.7272720336914 L279.3909118652344,1044.7272720336914 z" style="fill:#161616;" id="svg_366"/>
			</g>
		</g>
		<g id="svg_367">
			<g id="svg_368">
				<path d="M438.5909118652344,1046.0272720336914 c47.8,0 95.6,0 143.5,0 c5.8,0 5.8,-9 0,-9 c-47.8,0 -95.6,0 -143.5,0 C432.7909118652344,1037.0272720336914 432.7909118652344,1046.0272720336914 438.5909118652344,1046.0272720336914 L438.5909118652344,1046.0272720336914 z" style="fill:#161616;" id="svg_369"/>
			</g>
		</g>
		<g id="svg_370">
			<g id="svg_371">
				<path d="M614.7909118652344,1042.8272720336913 c8.5,0 17,0 25.6,0 c5.8,0 5.8,-9 0,-9 c-8.5,0 -17,0 -25.6,0 C608.9909118652344,1033.8272720336913 608.9909118652344,1042.8272720336913 614.7909118652344,1042.8272720336913 L614.7909118652344,1042.8272720336913 z" style="fill:#161616;" id="svg_372"/>
			</g>
		</g>
		<g id="svg_373">
			<g id="svg_374">
				<path d="M49.6909118652344,1015.0272720336914 c20.7,0 41.4,0 62,0 c5.8,0 5.8,-9 0,-9 c-20.7,0 -41.4,0 -62,0 C43.890911865234386,1006.0272720336914 43.890911865234386,1015.0272720336914 49.6909118652344,1015.0272720336914 L49.6909118652344,1015.0272720336914 z" style="fill:#161616;" id="svg_375"/>
			</g>
		</g>
	</g>
</g><g id="laptop" class="">
	<path d="M487.0909118652344,632.3272720336914 c-61.7,-1.6 -123.5,-3.1 -185.2,-4.7 c36.6,-35 73.1,-70.1 109.7,-105.1 c42.2,2.2 84.5,4.4 126.7,6.6 C521.1909118652344,563.6272720336914 504.1909118652344,597.9272720336915 487.0909118652344,632.3272720336914 z" style="fill:#FFFFFF;stroke:#191919;stroke-width:2;stroke-miterlimit:10;" id="svg_376"/>
	<path d="M409.49091186523435,521.8272720336914 c-35.9,34.7 -71.8,69.5 -107.7,104.2 c-1.6,-55.6 -3.3,-111.3 -4.9,-166.9 c36.4,-23 72.8,-46 109.2,-69 C407.0909118652344,434.02727203369136 408.2909118652344,477.92727203369145 409.49091186523435,521.8272720336914 z" style="fill:#FFFFFF;stroke:#191919;stroke-width:2;stroke-miterlimit:10;" id="svg_377"/>
	<g id="svg_378">
		<g id="svg_379">
			<path d="M300.1909118652344,464.42727203369145 c2.9,49.5 4.8,99.1 5.8,148.7 c0,1 1.5,1 1.5,0 c-1,-49.6 -2.9,-99.2 -5.8,-148.7 C301.5909118652344,463.52727203369136 300.0909118652344,463.52727203369136 300.1909118652344,464.42727203369145 L300.1909118652344,464.42727203369145 z" style="fill:#191919;" id="svg_380"/>
		</g>
	</g>
	<g id="svg_381">
		<g id="svg_382">
			<path d="M300.99091186523435,464.6272720336914 c33.5,-21.8 67,-43.6 100.5,-65.4 c0.8,-0.5 0.1,-1.8 -0.8,-1.3 c-33.5,21.8 -67,43.6 -100.5,65.4 C299.39091186523433,463.92727203369145 300.0909118652344,465.2272720336914 300.99091186523435,464.6272720336914 L300.99091186523435,464.6272720336914 z" style="fill:#191919;" id="svg_383"/>
		</g>
	</g>
	<g id="svg_384">
		<g id="svg_385">
			<path d="M401.0909118652344,399.1272720336914 c-0.1,39.9 1.1,79.9 3.7,119.7 c0.1,1 1.6,1 1.5,0 c-2.5,-39.9 -3.8,-79.8 -3.7,-119.7 C402.5909118652344,398.2272720336914 401.0909118652344,398.2272720336914 401.0909118652344,399.1272720336914 L401.0909118652344,399.1272720336914 z" style="fill:#191919;" id="svg_386"/>
		</g>
	</g>
	<g id="svg_387">
		<g id="svg_388">
			<path d="M306.99091186523435,615.2272720336914 c32.8,-31.7 65.7,-63.4 98.5,-95 c0.7000000000000001,-0.7000000000000001 -0.4,-1.7000000000000002 -1.1,-1.1 c-32.8,31.7 -65.7,63.4 -98.5,95 C305.2909118652344,614.8272720336914 306.2909118652344,615.9272720336915 306.99091186523435,615.2272720336914 L306.99091186523435,615.2272720336914 z" style="fill:#191919;" id="svg_389"/>
		</g>
	</g>
	<g id="svg_390">
		<g id="svg_391">
			<path d="M458.89091186523433,598.2272720336914 c6.1,-9.7 12.2,-19.5 18.1,-29.4 c0.5,-0.8 -0.8,-1.6 -1.3,-0.8 c-5.9,9.9 -12,19.7 -18.1,29.4 C456.99091186523435,598.2272720336914 458.2909118652344,599.0272720336914 458.89091186523433,598.2272720336914 L458.89091186523433,598.2272720336914 z" style="fill:#191919;" id="svg_392"/>
		</g>
	</g>
	<g id="svg_393">
		<g id="svg_394">
			<path d="M476.5909118652344,568.5272720336914 c7.9,0.30000000000000004 15.8,0.30000000000000004 23.7,-0.1 c1,0 1,-1.5 0,-1.5 c-7.9,0.30000000000000004 -15.8,0.30000000000000004 -23.7,0.1 C475.5909118652344,567.0272720336914 475.5909118652344,568.5272720336914 476.5909118652344,568.5272720336914 L476.5909118652344,568.5272720336914 z" style="fill:#191919;" id="svg_395"/>
		</g>
	</g>
	<g id="svg_396">
		<g id="svg_397">
			<path d="M499.2909118652344,568.0272720336914 c-4.5,9.8 -9.1,19.6 -13.7,29.4 c-0.4,0.9 0.9,1.6 1.3,0.8 c4.6,-9.8 9.2,-19.6 13.7,-29.4 C500.99091186523435,567.8272720336914 499.6909118652344,567.1272720336914 499.2909118652344,568.0272720336914 L499.2909118652344,568.0272720336914 z" style="fill:#191919;" id="svg_398"/>
		</g>
	</g>
	<g id="svg_399">
		<g id="svg_400">
			<path d="M458.39091186523433,599.0272720336914 c8.8,1.3 18.1,0.7000000000000001 27,0.30000000000000004 c1,0 1,-1.5 0,-1.5 c-8.7,0.4 -17.9,1 -26.6,-0.2 C457.7909118652344,597.4272720336915 457.39091186523433,598.9272720336915 458.39091186523433,599.0272720336914 L458.39091186523433,599.0272720336914 z" style="fill:#191919;" id="svg_401"/>
		</g>
	</g>
	<g id="svg_402">
		<g id="svg_403">
			<path d="M491.1909118652344,568.1272720336914 c-4,10 -8.6,19.7 -13.8,29.1 c-0.5,0.8 0.8,1.6 1.3,0.8 c5.2,-9.6 9.9,-19.4 14,-29.5 C492.99091186523435,567.6272720336914 491.5909118652344,567.2272720336914 491.1909118652344,568.1272720336914 L491.1909118652344,568.1272720336914 z" style="fill:#191919;" id="svg_404"/>
		</g>
	</g>
	<g id="svg_405">
		<g id="svg_406">
			<path d="M346.2909118652344,613.4272720336915 c22,-27.2 44.8,-53.8 68.3,-79.8 c0.6000000000000001,-0.7000000000000001 -0.4,-1.8 -1.1,-1.1 c-23.5,25.9 -46.3,52.5 -68.3,79.8 C344.5909118652344,613.1272720336914 345.6909118652344,614.1272720336914 346.2909118652344,613.4272720336915 L346.2909118652344,613.4272720336915 z" style="fill:#191919;" id="svg_407"/>
		</g>
	</g>
	<g id="svg_408">
		<g id="svg_409">
			<path d="M372.89091186523433,615.1272720336914 c19.7,-27.5 40.5,-54.1 62.3,-79.9 c0.6000000000000001,-0.7000000000000001 -0.4,-1.8 -1.1,-1.1 c-21.9,25.9 -42.7,52.6 -62.5,80.2 C370.99091186523435,615.1272720336914 372.2909118652344,615.9272720336915 372.89091186523433,615.1272720336914 L372.89091186523433,615.1272720336914 z" style="fill:#191919;" id="svg_410"/>
		</g>
	</g>
	<g id="svg_411">
		<g id="svg_412">
			<path d="M401.49091186523435,619.2272720336914 c17.1,-28.6 35.8,-56.2 56,-82.7 c0.6000000000000001,-0.8 -0.7000000000000001,-1.5 -1.3,-0.8 c-20.2,26.5 -38.9,54.1 -56,82.7 C399.6909118652344,619.2272720336914 400.99091186523435,620.0272720336914 401.49091186523435,619.2272720336914 L401.49091186523435,619.2272720336914 z" style="fill:#191919;" id="svg_413"/>
		</g>
	</g>
	<g id="svg_414">
		<g id="svg_415">
			<path d="M425.49091186523435,621.7272720336914 c16.8,-31.3 36.7,-60.8 59.5,-88 c0.6000000000000001,-0.7000000000000001 -0.4,-1.8 -1.1,-1.1 c-22.9,27.3 -42.9,56.9 -59.8,88.3 C423.6909118652344,621.8272720336914 424.99091186523435,622.6272720336914 425.49091186523435,621.7272720336914 L425.49091186523435,621.7272720336914 z" style="fill:#191919;" id="svg_416"/>
		</g>
	</g>
	<g id="svg_417">
		<g id="svg_418">
			<path d="M359.0909118652344,597.2272720336914 c25.6,-2.7 51.2,0.5 76.7,3.9 c1,0.1 0.9,-1.4 0,-1.5 c-25.4,-3.4 -51,-6.7 -76.7,-3.9 C358.1909118652344,595.8272720336914 358.1909118652344,597.3272720336914 359.0909118652344,597.2272720336914 L359.0909118652344,597.2272720336914 z" style="fill:#191919;" id="svg_419"/>
		</g>
	</g>
	<g id="svg_420">
		<g id="svg_421">
			<path d="M371.99091186523435,582.6272720336914 c24.2,-0.9 48.4,0.9 72.2,5.5 c0.9,0.2 1.3,-1.3 0.4,-1.4 c-23.9,-4.6 -48.3,-6.4 -72.6,-5.5 C371.0909118652344,581.1272720336914 371.0909118652344,582.6272720336914 371.99091186523435,582.6272720336914 L371.99091186523435,582.6272720336914 z" style="fill:#191919;" id="svg_422"/>
		</g>
	</g>
	<g id="svg_423">
		<g id="svg_424">
			<path d="M383.5909118652344,568.5272720336914 c23.3,-1.5 46.6,0.6000000000000001 69.3,6.2 c0.9,0.2 1.3,-1.2 0.4,-1.4 c-22.8,-5.7 -46.2,-7.8 -69.7,-6.3 C382.5909118652344,567.1272720336914 382.5909118652344,568.6272720336914 383.5909118652344,568.5272720336914 L383.5909118652344,568.5272720336914 z" style="fill:#191919;" id="svg_425"/>
		</g>
	</g>
	<g id="svg_426">
		<g id="svg_427">
			<path d="M395.5909118652344,554.4272720336915 c22.4,0.1 44.6,2.4 66.5,6.9 c0.9,0.2 1.3,-1.3 0.4,-1.4 c-22,-4.5 -44.4,-6.8 -66.9,-6.9 C394.6909118652344,552.9272720336915 394.6909118652344,554.4272720336915 395.5909118652344,554.4272720336915 L395.5909118652344,554.4272720336915 z" style="fill:#191919;" id="svg_428"/>
		</g>
	</g>
	<g id="svg_429">
		<g id="svg_430">
			<path d="M407.49091186523435,541.3272720336914 c21.3,0.4 42.5,2.9 63.2,7.6 c0.9,0.2 1.3,-1.2 0.4,-1.4 c-20.9,-4.7 -42.2,-7.3 -63.6,-7.6 C406.49091186523435,539.8272720336914 406.49091186523435,541.3272720336914 407.49091186523435,541.3272720336914 L407.49091186523435,541.3272720336914 z" style="fill:#191919;" id="svg_431"/>
		</g>
	</g>
	<g id="svg_432">
		<g id="svg_433">
			<path d="M476.0909118652344,556.5272720336914 c-9.8,14.4 -19.5,28.8 -29.3,43.2 c-0.5,0.8 0.8,1.6 1.3,0.8 c9.8,-14.4 19.5,-28.8 29.3,-43.2 C477.99091186523435,556.4272720336915 476.6909118652344,555.7272720336914 476.0909118652344,556.5272720336914 L476.0909118652344,556.5272720336914 z" style="fill:#191919;" id="svg_434"/>
		</g>
	</g>
	<g id="svg_435">
		<g id="svg_436">
			<path d="M310.49091186523435,534.7272720336914 c12.5,-5.3 26,-2.3 39.2,-2.5 c11.1,-0.1 21.7,-3.2 31.2,-8.8 c0.8,-0.5 0.1,-1.8 -0.8,-1.3 c-11.7,6.9 -24.1,9.1 -37.5,8.5 c-11.2,-0.5 -22.3,-1.6 -32.9,2.9 C308.89091186523433,533.8272720336914 309.5909118652344,535.1272720336914 310.49091186523435,534.7272720336914 L310.49091186523435,534.7272720336914 z" style="fill:#191919;" id="svg_437"/>
		</g>
	</g>
	<g id="svg_438">
		<g id="svg_439">
			<path d="M344.1909118652344,528.5272720336914 c21.4,-12.1 31.3,-37.6 53.6,-48.3 c0.9,-0.4 0.1,-1.7000000000000002 -0.8,-1.3 c-22.4,10.8 -32.2,36.2 -53.6,48.3 C342.5909118652344,527.7272720336914 343.2909118652344,529.0272720336914 344.1909118652344,528.5272720336914 L344.1909118652344,528.5272720336914 z" style="fill:#191919;" id="svg_440"/>
		</g>
	</g>
	<g id="svg_441">
		<g id="svg_442">
			<path d="M371.39091186523433,457.2272720336914 c-3.7,-2.9 -3.1,-7.6 -1,-11.3 c1,-1.8 2.5,-3.7 4.2,-4.8 c3.1,-2 6,-0.4 8.4,1.7000000000000002 c0.7000000000000001,0.6000000000000001 1.8,-0.4 1.1,-1.1 c-5,-4.2 -9.7,-3.8 -13.8,1.6 c-3.3,4.4 -5,11 0,15 C371.0909118652344,458.92727203369145 372.1909118652344,457.82727203369143 371.39091186523433,457.2272720336914 L371.39091186523433,457.2272720336914 z" style="fill:#191919;" id="svg_443"/>
		</g>
	</g>
</g><g id="torso" class="">
	<path d="M679.3909118652343,384.1272720336914 c-27.4,30.4 -34.8,63.8 -38.8,82.7 c-7.3,35 0.4,49 0.9,115.5 c0.2,28.3 -1,51.2 -1.9,65.6 c6.2,4.8 44.6,33.4 95.9,24 c38,-6.9 60.9,-30.7 68.1,-38.8 c1.7000000000000002,-9.5 4.1,-23.5 6.9,-40.5 c14.8,-91.7 22.1,-138.2 12.9,-171.5 c-5.5,-20.2 -19.1,-52.2 -57.7,-85.3 C749.4909118652344,339.2272720336914 710.5909118652344,349.6272720336914 679.3909118652343,384.1272720336914 z" style="fill:#9B9B9B;" id="svg_444"/>
	<path d="M707.2909118652344,365.7272720336914 c9.5,28.4 14.6,52.7 17.6,70.5 c7.9,47.1 19.8,117.7 -13.7,186.1 c-10.7,21.8 -23.2,37.8 -32,47.7 c11.6,2.7 34.6,6.4 62,-0.7000000000000001 c32.6,-8.4 53,-27.3 61.4,-35.9 c6.5,-37.2 11.7,-69.1 15.7,-94 c6.9,-43.8 8.5,-57.1 7.8,-75.8 c-0.8,-24 -1.9,-49.2 -16.3,-76.4 c-13.8,-26 -33.2,-41.6 -45.1,-49.6 c-9.7,1.7000000000000002 -23.4,5.3 -37.9,13.7 C718.7909118652344,356.1272720336914 712.2909118652344,361.2272720336914 707.2909118652344,365.7272720336914 z" style="opacity:0.19;fill:#6C6D6D;" id="svg_445"/>
	<path d="M820.8909118652343,413.42727203369145 c-1.8,0.1 2,27.8 -3.9,66 c-10.9,70.7 -45.9,119.7 -59.4,137.1 c-11.3,14.5 -29,34.5 -54.9,54.2 c9.3,1.4 21.7,2 35.9,-0.7000000000000001 c33.7,-6.3 55.1,-27 63.3,-35.9 c2.1,-12.2 5.5,-31.3 9.8,-54.9 c10.1,-55.2 12.1,-61.8 13.7,-79 C829.7909118652344,453.32727203369143 822.9909118652345,413.42727203369145 820.8909118652343,413.42727203369145 z" style="opacity:0.18;fill:#6C6D6D;" id="svg_446"/>
</g><g id="hand_l" class="selected">
	<path d="M503.1909118652344,487.7272720336914 c-1.9,-1.3 -5.7,-3.7 -5.3,-5.7 c0.8,-3.2 12.3,-3.7 20.6,-2.3 c5.6,0.9 15.8,3.8 26.5,13.9 C532.9909118652344,495.32727203369143 515.6909118652344,495.82727203369143 503.1909118652344,487.7272720336914 z" style="fill:#FFFFFF;stroke:#191919;stroke-width:2;stroke-miterlimit:10;" id="svg_447"/>
	<path d="M785.4909118652344,391.9272720336914 c-20.1,-5.9 -43.6,21.2 -45.7,23.8 c-8,9.5 -9.9,16.3 -17.4,34.7 c-18.2,45 -27.7,67.7 -45.7,79.5 c-16.1,10.6 -33,11 -37.5,11 c-18.9,-0.1 -34.5,-9.5 -64.9,-28.3 c-25.6,-15.9 -28.2,-20.7 -43,-24.7 c-7.5,-2 -29.5,-8 -46.6,3.7 c-10.9,7.4 -17.6,21.2 -14.6,24.7 c3.8,4.5 24.2,-6.1 24.3,-5.7 c0.1,0.2 -5.9,1.9 -11.3,6.7 c-2.7,2.3 -7.5,7.3 -6.4,9.1 c2,3.4 20.2,-12.2 36.4,-6.4 c11,3.9 11.6,14.4 24.5,18.5 c7.6,2.4 14.8,1.1 19.4,-0.2 c6.2,9.3 16.7,22.6 32.9,34.7 c9.7,7.2 43.9,32 91.4,28.3 c50.4,-3.9 81,-37.2 90.5,-47.5 c5.5,-5.9 45.4,-50.6 39.3,-108.8 C810.1909118652343,435.52727203369136 806.2909118652344,398.1272720336914 785.4909118652344,391.9272720336914 z" style="fill:#FFFFFF;stroke:#191919;stroke-width:2;stroke-miterlimit:10;" id="svg_448"/>
	<path d="M783.2909118652344,391.9272720336914 c-7.6,2.5 1.9,29.6 -5.8,65.1 c-7.3,34.1 -26.5,57.1 -35.2,67.6 c-11.7,14.1 -27,32.5 -53.1,41.9 c-35,12.6 -74.3,3.7 -100.6,-12.8 c-7.8,-5 -14.4,-17.9 -31.9,-28 c-7.6,-4.4 -13.7,-6.6 -21,-9.3 c-17.6,-6.4 -33.4,-12.2 -49.5,-7.1 c-7.7,2.4 -14.6,7 -14.2,7.8 c0.4,0.9 9.3,-2 17.3,-4.7 c-10.7,10.1 -12.7,13.2 -12.2,14 c0.6000000000000001,0.8 3.8,-1.3 11.3,-3.9 c8.2,-2.9 13.9,-4.8 20.5,-3.2 c3.3,0.8 5.7,2.3 7.2,3.2 c5.5,3.4 6.4,6.7 11.8,10.6 c3.3,2.4 6.3,3.6 7.9,4.2 c3.3,1.3 10.3,3.4 20.2,1.6 c6.8,9.8 38.3,53.2 93.6,61.2 c28.5,4.1 51,-2.9 59.9,-5.8 c48.8,-15.8 73.5,-53.6 79.9,-64.1 c19.8,-32.4 33.3,-83 12.9,-119.4 C797.4909118652345,401.7272720336914 788.4909118652344,390.2272720336914 783.2909118652344,391.9272720336914 z" style="opacity:0.25;fill:#6C6D6D;" id="svg_449"/>
	<g id="svg_450">
		<g id="svg_451">
			<path d="M471.89091186523433,516.6272720336914 c5.3,-5.5 11.5,-9.5 18.7,-11.9 c1.4,-0.5 0.8,-2.6 -0.6000000000000001,-2.2 c-7.5,2.6 -14.2,6.8 -19.7,12.5 C469.2909118652344,516.1272720336914 470.89091186523433,517.7272720336914 471.89091186523433,516.6272720336914 L471.89091186523433,516.6272720336914 z" style="fill:#191919;" id="svg_452"/>
		</g>
	</g>
	<g id="svg_453">
		<g id="svg_454">
			<path d="M475.49091186523435,503.2272720336914 c5.3,-5.9 12.7,-8.2 20.1,-10.3 c1.4,-0.4 0.8,-2.6 -0.6000000000000001,-2.2 c-7.7,2.3 -15.5,4.8 -21,10.9 C472.89091186523433,502.7272720336914 474.49091186523435,504.2272720336914 475.49091186523435,503.2272720336914 L475.49091186523435,503.2272720336914 z" style="fill:#191919;" id="svg_455"/>
		</g>
	</g>
	<path d="M807.9909118652345,434.92727203369145 c-3.4,10.4 -8.9,25.4 -17,42.8 c-16.1,34.3 -30.6,65.2 -58.9,87.1 c-34.9,27 -76.7,29.3 -100.2,28.2 c16.5,6.7 30.2,8.1 38.9,8.3 c66.2,1.4 112.6,-61.3 127,-89.5 c2.5,-5 7.7,-15.4 10.7,-30.2 C812.3909118652343,461.7272720336914 810.0909118652344,445.02727203369136 807.9909118652345,434.92727203369145 z" style="opacity:0.29;fill:#6C6D6D;" id="svg_456"/>
	<path d="M515.4909118652344,519.0272720336914 c5.6,3.9 13.5,8.5 23.6,12.1 c8,2.8 15.3,4.2 21.1,4.9 c-16.1,5.3 -23.6,3.2 -27.5,0 c-2.4,-2 -4.9,-5.7 -12.4,-12.6 C518.3909118652343,521.5272720336914 516.6909118652344,520.0272720336914 515.4909118652344,519.0272720336914 z" style="opacity:0.26;fill:#6C6D6D;" id="svg_457"/>
</g><g id="head" class="">
	<path d="M630.4909118652344,190.2272720336914 c-1.1,6.4 -2.2,12.8 -3.1,19.5 c-3.9,27.2 -5.5,52.9 -5.6,76.8 c5.5,-0.6000000000000001 10.9,-1.2 16.4,-1.7000000000000002 c-0.6000000000000001,5.3 -2.3,24.7 10.1,43.9 c11.7,18.1 28.5,24.7 33.7,26.5 c-0.6000000000000001,9.8 -1.1,19.5 -1.7000000000000002,29.3 c10.8,-9.6 25.5,-20.9 44.2,-31 c14.3,-7.7 27.8,-13 39.3,-16.6 c-12.9,-16 -17.8,-31.1 -19.9,-39.8 c-3.6,-15 -2.9,-27.9 -2.2,-39.3 c0.7000000000000001,-11.7 2.4,-21.4 3.9,-28.2 c4.7,-21.4 -7.6,-55.3 -32.1,-67.5 C689.2909118652344,150.02727203369142 653.1909118652344,160.2272720336914 630.4909118652344,190.2272720336914 z" style="fill:#FFFFFF;stroke:#161616;stroke-width:2;stroke-miterlimit:10;" id="svg_458"/>
	<g id="svg_459">
		<g id="svg_460">
			<path d="M635.8909118652343,285.5272720336914 c2.8,-0.4 5.7,-0.7000000000000001 8.5,-1 c1,-0.1 1,-1.6 0,-1.5 c-3,0.30000000000000004 -5.9,0.7000000000000001 -8.9,1.1 C634.5909118652344,284.1272720336914 634.9909118652344,285.6272720336914 635.8909118652343,285.5272720336914 L635.8909118652343,285.5272720336914 z" style="fill:#161616;" id="svg_461"/>
		</g>
	</g>
	<path d="M726.0909118652344,205.7272720336914 c-12.1,3.1 -14.3,13.6 -29.6,35.5 c-15.5,22.2 -25.3,36.1 -42.8,44.2 c-11.3,5.2 -16.9,3.8 -21.9,10.5 c-8.6,11.6 -2.8,30.7 2.3,40.5 c5.9,11.3 14.9,18.1 22.3,23.7 c7.1,5.3 13.6,8.8 18.2,10.9 c-4.9,-7.5 -5.2,-9.8 -4.6,-10.5 c1.6,-1.6 8.4,7 16.4,5.9 c2.3,-0.30000000000000004 6.4,-1.6 15.5,-15.9 c6.2,-9.7 10.4,-16.4 13.2,-26 c6.1,-20.6 -2.5,-26.2 0,-53.3 c0.4,-4.1 3.2,-36.2 14.6,-38.3 c4.1,-0.8 8.3,2.6 10.3,5.2 c4.2,5.5 3.7,14.3 -1.5,21.9 c1.7000000000000002,-1.2 18,-12.2 17.8,-30.1 c0,-2.8 -0.1,-13.1 -7.9,-19.8 C739.4909118652344,202.52727203369142 727.0909118652344,205.52727203369142 726.0909118652344,205.7272720336914 z" style="fill:#161616;stroke:#161616;stroke-width:2;stroke-miterlimit:10;" id="svg_462"/>
	<ellipse cx="645.4909362792969" cy="243.7272720336914" rx="4.199999809265137" ry="7.5" style="fill:#161616;" id="svg_463"/>
	<ellipse cx="613.4909362792969" cy="247.2272720336914" rx="4.199999809265137" ry="7.5" style="fill:#161616;" id="svg_464"/>
	<g id="svg_465">
		<g id="svg_466">
			<path d="M607.1909118652344,234.9272720336914 c2.7,-3.1 6.9,-3.4 9.9,-0.4 c1.4,1.4 3.5,-0.8 2.1,-2.1 c-4.1,-4 -10.4,-3.9 -14.2,0.4 C603.8909118652343,234.32727203369143 605.9909118652344,236.4272720336914 607.1909118652344,234.9272720336914 L607.1909118652344,234.9272720336914 z" style="fill:#161616;" id="svg_467"/>
		</g>
	</g>
	<g id="svg_468">
		<g id="svg_469">
			<path d="M639.9909118652344,229.7272720336914 c3.5,-2.9 8.1,-2.5 11.1,0.8 c1.3,1.4 3.4,-0.7000000000000001 2.1,-2.1 c-4.2,-4.5 -10.7,-4.7 -15.4,-0.8 C636.3909118652343,228.82727203369143 638.4909118652344,230.9272720336914 639.9909118652344,229.7272720336914 L639.9909118652344,229.7272720336914 z" style="fill:#161616;" id="svg_470"/>
		</g>
	</g>
	<path d="M627.0909118652344,202.12727203369138 c1.1,-7.2 3.9,-19 11.6,-31.2 c2.7,-4.3 8.5,-13.4 17.7,-19.6 c17.6,-11.7 44.7,-10.8 64.4,3.6 c19.3,14.1 28.9,39.3 24.7,64.3 C705.9909118652344,213.62727203369138 666.5909118652344,207.9272720336914 627.0909118652344,202.12727203369138 z" style="fill:#494949;" id="svg_471"/>
	<g id="svg_472">
		<g id="svg_473">
			<path d="M562.4909118652344,203.02727203369142 c60.7,7.8 121.5,15.6 182.2,23.3 c5.7,0.7000000000000001 5.7,-8.3 0,-9 c-60.7,-7.8 -121.5,-15.6 -182.2,-23.3 C556.7909118652344,193.2272720336914 556.7909118652344,202.2272720336914 562.4909118652344,203.02727203369142 L562.4909118652344,203.02727203369142 z" style="fill:#161616;" id="svg_474"/>
		</g>
	</g>
	<path d="M678.4909118652344,144.02727203369142 c15.6,3.4 27.4,16 29.4,31.1 c1.8,13.2 -4,26.6 -15,34.8 c17.3,2.3 34.7,4.7 52,7 c0.9,-4.6 1.7000000000000002,-11.6 0.6000000000000001,-19.8 c-2.6,-19.2 -13.7,-31.5 -17.3,-35.2 c-3.9,-4 -17.7,-17.4 -38.2,-18.6 C685.2909118652344,143.1272720336914 681.2909118652344,143.52727203369142 678.4909118652344,144.02727203369142 z" style="fill:#333333;" id="svg_475"/>
</g></g></svg>